<svg width="104" height="88" viewBox="0 0 104 88" fill="none" xmlns="http://www.w3.org/2000/svg">
<path d="M83.6843 40.7273C83.4012 40.7273 83.1276 40.7601 82.8477 40.7699L78.0112 17.8182H90.1201V11.2727H74.0307C73.5507 11.2726 73.0767 11.3817 72.6435 11.592C72.2103 11.8023 71.8289 12.1085 71.5271 12.4882C71.2254 12.8679 71.011 13.3114 70.8996 13.7863C70.7883 14.2612 70.7828 14.7554 70.8836 15.2327L72.8079 24.3637H39.8794L36.6615 14.5455H45.0698V8H22.5447V14.5455H29.8814L33.2313 24.7662L24.9613 41.5881C21.208 40.4189 17.1936 40.4411 13.453 41.6516C9.71245 42.8622 6.42354 45.2035 4.02471 48.3636C1.62588 51.5236 0.231102 55.3523 0.0263034 59.3391C-0.178495 63.3259 0.816417 67.2815 2.87841 70.6786C4.94041 74.0757 7.97152 76.7529 11.5677 78.3532C15.1638 79.9536 19.1542 80.4011 23.0068 79.6361C26.8594 78.8711 30.3913 76.93 33.1315 74.0715C35.8718 71.213 37.6902 67.5729 38.3445 63.6365H46.7431C47.7086 63.639 48.6622 63.4195 49.5326 62.9944C50.403 62.5694 51.1676 61.9498 51.7694 61.1819L74.4812 32.3033L76.5535 42.1346C72.1016 43.9495 68.4748 47.3873 66.3819 51.7764C64.2889 56.1654 63.88 61.1905 65.2351 65.8698C66.5903 70.5491 69.6121 74.5464 73.7101 77.0809C77.8082 79.6154 82.6881 80.5049 87.3966 79.5757C92.105 78.6464 96.3037 75.9652 99.1724 72.0559C102.041 68.1465 103.374 63.2898 102.91 58.4347C102.446 53.5795 100.219 49.0747 96.6634 45.8003C93.1083 42.5258 88.4806 40.7171 83.6843 40.7273ZM19.3268 73.4547C17.5203 73.4582 15.7333 73.0749 14.082 72.3298C12.4307 71.5847 10.9521 70.4944 9.74242 69.1298C8.53272 67.7653 7.61899 66.157 7.06067 64.4097C6.50234 62.6623 6.31192 60.815 6.50179 58.9878C6.69166 57.1607 7.25757 55.3947 8.16272 53.8046C9.06786 52.2146 10.292 50.8361 11.7554 49.7589C13.2188 48.6817 14.8889 47.9298 16.6568 47.5522C18.4248 47.1747 20.2511 47.1798 22.017 47.5673L16.45 58.9008L16.479 58.9139C16.2452 59.3608 16.1184 59.8576 16.1089 60.3637C16.104 61.1001 16.3452 61.8164 16.7929 62.3951C17.2406 62.9739 17.8683 63.3809 18.5732 63.5493C19.278 63.7178 20.0183 63.6378 20.6726 63.3225C21.3269 63.0071 21.8565 62.4751 22.1746 61.8135L22.2068 61.8266L27.748 50.5455C29.7329 52.2854 31.1457 54.6023 31.7961 57.1839C32.4465 59.7656 32.3033 62.4879 31.3857 64.9842C30.468 67.4805 28.8202 69.6308 26.664 71.1453C24.5079 72.6598 21.9472 73.4658 19.3268 73.4547ZM38.3445 57.091C37.5018 52.0553 34.7626 47.5519 30.7084 44.5368L36.108 33.547L43.8245 57.091H38.3445ZM49.4719 53.6219L42.0257 30.9091H67.3343L49.4719 53.6219ZM83.6843 73.4547C80.7869 73.464 77.9716 72.4758 75.6966 70.6509C73.4216 68.826 71.8207 66.2717 71.1546 63.4038C70.4884 60.5359 70.7961 57.5231 72.0276 54.8557C73.2591 52.1883 75.342 50.0232 77.9372 48.7128L80.5372 61.051L80.6016 61.0379C80.7436 61.7654 81.1276 62.4209 81.6891 62.8942C82.2505 63.3675 82.9551 63.6296 83.6843 63.6365C84.5378 63.6365 85.3563 63.2917 85.9597 62.6779C86.5632 62.0641 86.9022 61.2317 86.9022 60.3637C86.8819 60.1346 86.8366 59.9085 86.7671 59.6895L86.8314 59.6765L84.2314 47.3284C87.5982 47.4605 90.7793 48.9323 93.0895 51.4269C95.3996 53.9214 96.6539 57.239 96.5822 60.665C96.5104 64.091 95.1184 67.3512 92.7059 69.7435C90.2935 72.1357 87.0536 73.4685 83.6843 73.4547Z" fill="#FFF"/>
</svg>
