<svg width="104" height="88" viewBox="0 0 104 88" fill="none" xmlns="http://www.w3.org/2000/svg">
<path d="M101.711 43.1513L90.89 17.321C90.6139 16.6541 90.1519 16.085 89.5618 15.6847C88.9717 15.2844 88.2795 15.0707 87.5714 15.0701H76.75V7.69004C76.75 6.71138 76.37 5.7728 75.6935 5.08079C75.017 4.38877 74.0995 4 73.1429 4H4.60714C3.65047 4 2.73298 4.38877 2.05651 5.08079C1.38004 5.7728 1 6.71138 1 7.69004V70.4207C1 71.3993 1.38004 72.3379 2.05651 73.0299C2.73298 73.7219 3.65047 74.1107 4.60714 74.1107H12.3264C13.1571 77.2375 14.9705 79.9978 17.4868 81.9658C20.0031 83.9338 23.0826 85 26.25 85C29.4174 85 32.4969 83.9338 35.0132 81.9658C37.5295 79.9978 39.3429 77.2375 40.1736 74.1107H62.8264C63.6571 77.2375 65.4705 79.9978 67.9868 81.9658C70.5031 83.9338 73.5826 85 76.75 85C79.9174 85 82.9969 83.9338 85.5132 81.9658C88.0295 79.9978 89.8429 77.2375 90.6736 74.1107H98.3929C99.3495 74.1107 100.267 73.7219 100.943 73.0299C101.62 72.3379 102 71.3993 102 70.4207V44.5904C101.999 44.0958 101.901 43.6064 101.711 43.1513ZM76.75 22.4502H85.1907L92.91 40.9004H76.75V22.4502ZM26.25 77.8007C24.8231 77.8007 23.4283 77.3679 22.242 76.557C21.0556 75.746 20.1309 74.5934 19.5849 73.2449C19.0388 71.8964 18.896 70.4125 19.1743 68.9809C19.4527 67.5493 20.1398 66.2343 21.1487 65.2022C22.1577 64.17 23.4431 63.4672 24.8426 63.1824C26.242 62.8976 27.6925 63.0438 29.0108 63.6024C30.329 64.1609 31.4557 65.1069 32.2485 66.3205C33.0412 67.5342 33.4643 68.961 33.4643 70.4207C33.4643 72.378 32.7042 74.2551 31.3513 75.6392C29.9983 77.0232 28.1633 77.8007 26.25 77.8007ZM62.8264 66.7306H40.1736C39.3429 63.6038 37.5295 60.8435 35.0132 58.8755C32.4969 56.9076 29.4174 55.8413 26.25 55.8413C23.0826 55.8413 20.0031 56.9076 17.4868 58.8755C14.9705 60.8435 13.1571 63.6038 12.3264 66.7306H8.21429V11.3801H69.5357V57.7269C67.8932 58.7022 66.455 59.9995 65.3037 61.5446C64.1523 63.0896 63.3105 64.852 62.8264 66.7306ZM76.75 77.8007C75.3232 77.8007 73.9283 77.3679 72.742 76.557C71.5556 75.746 70.6309 74.5934 70.0849 73.2449C69.5388 71.8964 69.396 70.4125 69.6743 68.9809C69.9527 67.5493 70.6398 66.2343 71.6487 65.2022C72.6577 64.17 73.9431 63.4672 75.3426 63.1824C76.742 62.8976 78.1926 63.0438 79.5108 63.6024C80.829 64.1609 81.9557 65.1069 82.7485 66.3205C83.5412 67.5342 83.9643 68.961 83.9643 70.4207C83.9643 72.378 83.2042 74.2551 81.8513 75.6392C80.4983 77.0232 78.6633 77.8007 76.75 77.8007ZM94.7857 66.7306H90.6736C89.8759 63.5702 88.0767 60.7694 85.5574 58.7664C83.038 56.7634 79.9407 55.6711 76.75 55.6605V48.2804H94.7857V66.7306Z" fill="#FFF"/>
</svg>
