<svg width="112" height="40" viewBox="0 0 112 40" fill="none" xmlns="http://www.w3.org/2000/svg">
<path d="M16.9896 24.6405C17.716 24.6092 18.4234 24.3997 19.0496 24.0305V20.9805H16.0496C15.3096 22.2905 15.1796 23.5805 15.8296 24.2305C15.9842 24.3721 16.1657 24.4814 16.3632 24.5518C16.5607 24.6222 16.7703 24.6524 16.9796 24.6405" fill="#F58732"/>
<path d="M15.4226 28.0009C16.6935 27.9519 17.9358 27.6096 19.0526 27.0009V25.381C18.4061 25.6791 17.7045 25.8392 16.9926 25.851V25.851C16.6248 25.8613 16.2587 25.7986 15.9154 25.6664C15.5721 25.5342 15.2584 25.3353 14.9926 25.081C14.0426 24.141 13.9926 22.5709 14.7026 20.9609H12.9726C11.7626 23.3909 11.6426 25.7909 12.9726 27.0609C13.3099 27.3748 13.7067 27.6179 14.1395 27.7759C14.5723 27.9339 15.0324 28.0037 15.4926 27.981" fill="#F58732"/>
<path d="M9.47314 30.5992C9.96084 31.0442 10.5318 31.3881 11.1531 31.6112C11.7745 31.8344 12.4338 31.9322 13.0931 31.8992C15.2057 31.8125 17.2652 31.2118 19.0931 30.1492V28.3792C17.9557 28.9128 16.7192 29.2024 15.4631 29.2292V29.2292C14.8411 29.2542 14.2205 29.1537 13.6381 28.9338C13.0557 28.7139 12.5235 28.3791 12.0732 27.9492C10.4832 26.3592 10.4031 23.7092 11.6031 20.9492H9.96313C7.84313 24.8292 7.53318 28.5892 9.51318 30.5692" fill="#F58732"/>
<path d="M5.26154 34.8405C5.86018 35.3913 6.56353 35.8159 7.32978 36.0891C8.09603 36.3622 8.90943 36.4783 9.7215 36.4305C13.0482 36.2338 16.2651 35.1684 19.0515 33.3405V31.5305C17.1998 32.5147 15.1474 33.062 13.0515 33.1305C12.2305 33.1646 11.4109 33.0354 10.6401 32.7505C9.86941 32.4655 9.16289 32.0305 8.56153 31.4705C6.27153 29.1805 6.39151 25.1505 8.48151 20.9805H6.75153C3.32153 26.6505 2.5215 32.1405 5.2215 34.8405" fill="#F58732"/>
<path d="M9.72125 37.6605C8.74781 37.7061 7.77505 37.5571 6.85986 37.2223C5.94468 36.8874 5.10543 36.3735 4.39124 35.7104C2.27124 33.5804 1.86126 30.0505 3.23126 25.7605C3.78098 24.0972 4.50151 22.4953 5.38129 20.9805H0.03125V39.9805H19.0312V34.7305C16.2152 36.4692 13.0064 37.47 9.70129 37.6405" fill="#F58732"/>
<path d="M37.2307 8.82001C36.2536 8.54822 35.2448 8.40698 34.2307 8.39999C33.6114 8.37498 32.9925 8.45617 32.4006 8.64001C32.2876 8.67726 32.1697 8.69748 32.0507 8.70001C31.9215 8.70683 31.794 8.66787 31.6907 8.59C31.4507 8.4 31.6007 7.91999 31.6107 7.89999C32.0832 5.85156 31.8689 3.70458 31.0007 1.79001C30.7032 1.15133 30.3305 0.550409 29.8906 0H20.8906V19H39.8906V10.11C39.0643 9.52924 38.1491 9.0868 37.1807 8.80002" fill="#B0D140"/>
<path d="M34.2622 7.19907C35.371 7.20775 36.4738 7.36241 37.5422 7.65906C38.151 7.82795 38.7408 8.05917 39.3022 8.34906L35.7622 4.80905L31.9922 1.03906C31.9922 1.11906 32.0822 1.19905 32.1222 1.27905C32.9743 3.15638 33.276 5.23702 32.9922 7.27905C33.4134 7.22561 33.8376 7.1989 34.2622 7.19907" fill="#B0D140"/>
<path d="M27.9416 20.9805H25.3516V40.0005H27.9416V20.9805Z" fill="#2CAD97"/>
<path d="M31.7619 20.9805H29.1719V40.0005H31.7619V20.9805Z" fill="#2CAD97"/>
<path d="M35.59 20.9805H33V40.0005H35.59V20.9805Z" fill="#2CAD97"/>
<path d="M39.9703 20.9805H36.8203V40.0005H39.9703V20.9805Z" fill="#2CAD97"/>
<path d="M24.1209 20.9805H20.9609V40.0005H24.1209V20.9805Z" fill="#2CAD97"/>
<path d="M15.17 9.78024C13.83 12.5202 12.45 15.3503 9.51996 15.3503C6.58996 15.3503 5.19999 12.5202 3.85999 9.78024C2.76999 7.55024 1.74 5.43023 0 4.99023V18.9902H19V4.99023C17.27 5.44023 16.23 7.56024 15.15 9.78024" fill="#B16531"/>
<path d="M4.99988 9.23999C6.21988 11.75 7.37987 14.12 9.54987 14.12C11.7199 14.12 12.8698 11.75 14.0898 9.23999C15.3098 6.72999 16.5798 4.14999 19.0898 3.73999V0H0.0898438V3.73001C2.55984 4.14001 3.82984 6.72999 5.08984 9.23999" fill="#B16531"/>
<path d="M67.47 22.79C66.525 25.625 64.23 27.245 61.395 27.245C57.615 27.245 54.51 24.167 54.51 19.55C54.51 14.933 57.615 11.855 61.395 11.855C64.23 11.855 66.525 13.475 67.47 16.175H69.765C68.685 12.287 65.445 9.83 61.395 9.83C56.427 9.83 52.35 13.745 52.35 19.55C52.35 25.355 56.427 29.27 61.395 29.27C65.445 29.27 68.685 26.813 69.765 22.79H67.47ZM72.8827 29H75.0427V21.71H81.1177C84.0607 21.71 86.5177 19.28 86.5177 15.905C86.5177 12.53 84.0607 10.1 81.1177 10.1H72.8827V29ZM75.0427 19.685V12.125H81.1177C82.8727 12.125 84.3577 13.61 84.3577 15.905C84.3577 18.2 82.8727 19.685 81.1177 19.685H75.0427ZM90.0213 29H92.1813V12.935H92.7213L98.3913 29H101.631L107.301 12.935H107.841V29H110.001V10.1H106.086L100.281 26.57H99.7413L93.9363 10.1H90.0213V29Z" fill="white"/>
</svg>