<svg width="40" height="40" viewBox="0 0 40 40" fill="none" xmlns="http://www.w3.org/2000/svg">
<path d="M16.9892 24.6397C17.6171 24.6397 18.3342 24.4154 19.0451 24.0281V20.9794H16.0505C15.318 22.2917 15.1826 23.5825 15.8289 24.231C16.0967 24.5014 16.4876 24.6397 16.9892 24.6397Z" fill="#F08322"/>
<path d="M15.4185 27.9953C16.5419 27.9953 17.7976 27.6418 19.0471 27.0118V25.3984C18.3454 25.7026 17.6468 25.8655 16.9912 25.8655C16.1633 25.8655 15.4616 25.6012 14.9599 25.0972C14.0151 24.1537 13.9689 22.5863 14.6799 20.9759H12.9379C11.7284 23.41 11.6145 25.804 12.8856 27.0794C13.4857 27.6787 14.3598 27.9953 15.4185 27.9953Z" fill="#F08322"/>
<path d="M9.45281 30.5957C10.3053 31.447 11.5579 31.8988 13.0752 31.8988C14.8942 31.8988 16.9685 31.2688 19.0429 30.1532V28.3799C17.8087 28.9269 16.5684 29.225 15.4143 29.225C14.0232 29.225 12.8475 28.7825 12.0104 27.9496C10.4192 26.3607 10.3392 23.7116 11.5456 20.9794H9.89907C7.78778 24.8548 7.47386 28.6165 9.45281 30.5957Z" fill="#F08322"/>
<path d="M5.2383 34.8339C6.29394 35.8881 7.79585 36.4228 9.70401 36.4228C12.4801 36.4228 15.7547 35.3072 19.0479 33.3342V31.5332C16.9796 32.5597 14.9176 33.1283 13.0802 33.1283C11.2305 33.1283 9.67631 32.5536 8.58681 31.4656C6.29394 29.176 6.41089 25.1531 8.50987 20.9796H6.78022C3.33937 26.6529 2.53302 32.1356 5.2383 34.8339Z" fill="#F08322"/>
<path d="M9.70393 37.652C7.488 37.652 5.64447 36.979 4.36723 35.7036C2.24363 33.583 1.8343 30.0518 3.2131 25.7615C3.71784 24.1911 4.44417 22.5807 5.35824 20.9795H0V40H19.0478V34.7509C15.767 36.6102 12.5077 37.652 9.70393 37.652Z" fill="#F08322"/>
<path d="M37.2494 8.81722C36.2123 8.54062 35.212 8.39925 34.2826 8.39925C33.1007 8.39925 32.4483 8.63282 32.4421 8.63589C32.439 8.63897 32.2821 8.70351 32.0974 8.70351C31.9558 8.70351 31.8327 8.66355 31.7342 8.58672C31.4911 8.39618 31.6481 7.91675 31.6542 7.89524C31.6881 7.77538 32.476 4.89265 31.0418 1.78557C30.7186 1.07872 30.3277 0.48865 29.9338 0H20.9531V19.0174H40.0009L39.9701 10.1295C39.1514 9.57324 38.222 9.07845 37.2494 8.81722Z" fill="#B1D34A"/>
<path d="M34.28 7.19489C35.3141 7.19489 36.4159 7.35163 37.5608 7.65588C38.1763 7.82184 38.7703 8.06156 39.3304 8.34737L35.785 4.80389L32.0117 1.03606C32.0517 1.11903 32.0979 1.19894 32.1348 1.28499C33.2797 3.77434 33.1782 6.08852 33.0027 7.28402C33.4028 7.22563 33.8337 7.19489 34.28 7.19489Z" fill="#B1D34A"/>
<path d="M27.943 20.9759H25.3516V39.9964H27.943V20.9759Z" fill="#268E80"/>
<path d="M31.7711 20.9759H29.1797V39.9964H31.7711V20.9759Z" fill="#268E80"/>
<path d="M35.6031 20.976H33.0117V39.9965H35.6031V20.976Z" fill="#268E80"/>
<path d="M39.9975 20.976H36.8398V39.9965H39.9975V20.976Z" fill="#268E80"/>
<path d="M24.1139 20.9759H20.9531V39.9964H24.1139V20.9759Z" fill="#268E80"/>
<path d="M15.1945 9.77954C13.8557 12.5178 12.4738 15.3483 9.53466 15.3483C6.59547 15.3483 5.21359 12.5178 3.8748 9.77954C2.78222 7.54835 1.74197 5.43086 0 4.98831V19.0178H19.0478V4.99446C17.315 5.44316 16.2809 7.55449 15.1945 9.77954Z" fill="#B16531"/>
<path d="M4.97969 9.24139C6.20461 11.7492 7.36489 14.1187 9.53158 14.1187C11.6983 14.1187 12.8586 11.7492 14.0835 9.24139C15.3115 6.73052 16.5795 4.15205 19.0447 3.73716V5.72205e-05H0V3.73408C2.47753 4.13668 3.75169 6.72438 4.97969 9.24139Z" fill="#B16531"/>
</svg>