<svg width="24" height="24" viewBox="0 0 24 24" fill="none" xmlns="http://www.w3.org/2000/svg">
<path d="M9.77003 16.1223C10.0315 16.3728 10.7345 17.5484 8.8429 22.1168C8.56828 22.7694 8.28267 23.4088 7.99706 23.9999H0V0H23.9956V8.00291C22.2577 6.17028 19.1468 3.76194 14.8649 3.88719C8.56828 4.07177 4.46869 8.88187 4.65543 15.8542C4.66045 16.0306 4.71844 16.2014 4.82183 16.3443C4.92523 16.4873 5.06925 16.5958 5.23516 16.6558C5.40107 16.7158 5.58119 16.7244 5.75208 16.6806C5.92297 16.6368 6.07672 16.5425 6.19333 16.4101C6.19992 16.3992 7.06993 15.4389 8.13986 15.3927C8.70669 15.3818 9.23836 15.6015 9.77003 16.1223Z" fill="white"/>
<path d="M6.46579 14.0612C6.94034 9.02916 10.1238 5.7858 14.9176 5.64517C20.0608 5.49355 23.3783 9.88834 24 10.7673V24H9.93924C10.115 23.6133 10.2908 23.2133 10.4599 22.8068C12.145 18.7394 12.3098 16.1399 10.9916 14.8566C10.1062 14.0041 9.12416 13.5931 8.0674 13.6371C7.50984 13.6655 6.96434 13.8099 6.46579 14.0612Z" fill="white"/>
</svg>
