<svg width="100" height="100" viewBox="0 0 100 100" fill="none" xmlns="http://www.w3.org/2000/svg">
<path d="M42.473 61.5999C44.0427 61.5999 45.8354 61.039 47.6128 60.0709V52.4492H40.1263C38.2951 55.7299 37.9566 58.9568 39.5723 60.578C40.2417 61.2541 41.2189 61.5999 42.473 61.5999Z" fill="#F08322"/>
<path d="M38.5482 69.9897C41.3566 69.9897 44.4959 69.1062 47.6197 67.5311V63.4975C45.8654 64.2581 44.1188 64.6653 42.48 64.6653C40.4102 64.6653 38.656 64.0046 37.4018 62.7445C35.0397 60.3858 34.9243 56.4674 36.7016 52.4414H32.3467C29.3229 58.5265 29.0382 64.5116 32.2159 67.7001C33.7163 69.1984 35.9014 69.9897 38.5482 69.9897Z" fill="#F08322"/>
<path d="M23.634 76.4898C25.7653 78.618 28.8968 79.7475 32.6901 79.7475C37.2373 79.7475 42.4232 78.1724 47.6091 75.3834V70.9502C44.5237 72.3178 41.423 73.0631 38.5376 73.0631C35.0599 73.0631 32.1207 71.9567 30.0279 69.8746C26.05 65.9024 25.8499 59.2795 28.866 52.4492H24.7496C19.4714 62.1377 18.6866 71.5419 23.634 76.4898Z" fill="#F08322"/>
<path d="M13.0977 87.085C15.7368 89.7203 19.4916 91.0572 24.262 91.0572C31.2022 91.0572 39.3888 88.2682 47.6216 83.3356V78.8333C42.4511 81.3994 37.296 82.8208 32.7025 82.8208C28.0783 82.8208 24.1927 81.3841 21.469 78.6642C15.7368 72.9403 16.0292 62.883 21.2766 52.4492H16.9525C8.35037 66.6324 6.33449 80.3392 13.0977 87.085Z" fill="#F08322"/>
<path d="M24.2598 94.1305C18.72 94.1305 14.1112 92.4478 10.9181 89.2593C5.60907 83.9579 4.58574 75.13 8.03275 64.4042C9.2946 60.4781 11.1104 56.4522 13.3956 52.4492H0V100H47.6194V86.8775C39.4174 91.5259 31.2692 94.1305 24.2598 94.1305Z" fill="#F08322"/>
<path d="M93.1197 22.043C90.5268 21.3516 88.0261 20.9981 85.7025 20.9981C82.7479 20.9981 81.1168 21.5821 81.1014 21.5897C81.0937 21.5974 80.7013 21.7588 80.2396 21.7588C79.8857 21.7588 79.5779 21.6589 79.3317 21.4668C78.7239 20.9904 79.1163 19.7919 79.1316 19.7381C79.2163 19.4384 81.186 12.2316 77.6005 4.46393C76.7926 2.6968 75.8154 1.22163 74.8306 0H52.3789V47.5435H99.9983L99.9214 25.3238C97.8747 23.9331 95.5511 22.6961 93.1197 22.043Z" fill="#B1D34A"/>
<path d="M85.6941 17.9869C88.2793 17.9869 91.0338 18.3787 93.8961 19.1394C95.4349 19.5542 96.9199 20.1535 98.3202 20.8681L89.4565 12.0094L80.0234 2.58984C80.1235 2.79729 80.2389 2.99705 80.3312 3.21218C83.1934 9.43553 82.9395 15.2209 82.501 18.2097C83.5012 18.0637 84.5784 17.9869 85.6941 17.9869Z" fill="#B1D34A"/>
<path d="M69.8535 52.4414H63.375V99.9926H69.8535V52.4414Z" fill="#268E80"/>
<path d="M79.4238 52.4414H72.9453V99.9926H79.4238V52.4414Z" fill="#268E80"/>
<path d="M89.0059 52.4414H82.5273V99.9926H89.0059V52.4414Z" fill="#268E80"/>
<path d="M99.9919 52.4414H92.0977V99.9926H99.9919V52.4414Z" fill="#268E80"/>
<path d="M60.2808 52.4414H52.3789V99.9926H60.2808V52.4414Z" fill="#268E80"/>
<path d="M37.9863 24.4468C34.6393 31.2925 31.1846 38.3688 23.8366 38.3688C16.4887 38.3688 13.034 31.2925 9.687 24.4468C6.95556 18.8688 4.35492 13.5751 0 12.4688V47.5425H47.6194V12.4841C43.2876 13.6059 40.7023 18.8842 37.9863 24.4468Z" fill="#B16531"/>
<path d="M12.4492 23.1033C15.5115 29.3728 18.4122 35.2965 23.8289 35.2965C29.2457 35.2965 32.1464 29.3728 35.2087 23.1033C38.2787 16.8262 41.4487 10.38 47.6117 9.34275V0H0V9.33506C6.19383 10.3416 9.37923 16.8108 12.4492 23.1033Z" fill="#B16531"/>
</svg>
