<svg width="100" height="100" viewBox="0 0 100 100" fill="none" xmlns="http://www.w3.org/2000/svg">
<path d="M0 0V100H100V0H0ZM74.6032 42.0635C73.5815 55.8292 67.807 64.4955 56.0755 69.0841C56.0755 69.0841 58.4565 57.225 54.8896 50.2281C48.6134 37.9675 39.7646 34.7199 32.4576 32.8955L62.7075 19.8048C62.7075 19.8048 75.5702 28.9728 74.6032 42.0635ZM31.0983 18.6189C33.8725 17.0408 36.8455 15.8412 39.938 15.052L47.5826 22.1857C43.8093 21.6893 40.0003 21.5184 36.1978 21.6749C31.7995 21.9772 27.4828 23.0132 23.4264 24.74C25.77 22.4452 28.3405 20.3943 31.0983 18.6189ZM52.8462 85.0575C29.5749 85.0575 15.4443 64.158 15.4443 55.1542H36.0244C36.0244 55.1542 40.4488 69.75 50.1277 72.8243C59.8066 75.8986 65.6358 73.4994 71.2005 70.4434C75.0668 68.2054 78.6607 65.5268 81.9102 62.4612C81.9102 62.4612 76.1266 85.0575 52.8462 85.0575Z" fill="#268E80"/>
</svg>
