<svg width="100" height="100" viewBox="0 0 100 100" fill="none" xmlns="http://www.w3.org/2000/svg">
<path d="M98.341 64.1066C98.9002 64.1066 99.4501 64.1066 100 64.1066V41.4298H99.273C88.4762 41.4298 78.1214 37.1421 70.4852 29.5093C62.849 21.8766 58.5565 11.5238 58.5516 0.727002C58.5516 0.484668 58.5516 0.242334 58.5516 0H35.9679C35.9679 0.559232 35.9213 1.11846 35.9213 1.68702C35.9287 18.2395 42.5075 34.1118 54.2118 45.8162C65.9161 57.5205 81.7885 64.0992 98.341 64.1066Z" fill="#B16531"/>
<path d="M99.273 33.992H100V0H66.0267C66.0267 0.242334 66.0267 0.484668 66.0267 0.727002C66.0365 9.54317 69.5418 17.9957 75.774 24.2314C82.0063 30.4671 90.4568 33.9772 99.273 33.992Z" fill="#B16531"/>
<path d="M67.0053 64.1439C55.4244 58.3299 45.6876 49.4113 38.8819 38.384C32.0762 27.3567 28.4697 14.6547 28.4649 1.69634C28.4649 1.12778 28.4649 0.568553 28.5115 0.00932053H0V64.1439H67.0053Z" fill="#B16531"/>
<path d="M99.6365 71.5351V71.6003H0V100H100V71.5165L99.6365 71.5351Z" fill="#B16531"/>
</svg>
