<svg width="22" height="22" viewBox="0 0 22 22" fill="none" xmlns="http://www.w3.org/2000/svg">
<path d="M14.797 6.02828C14.797 8.07265 13.1537 9.72323 11.1348 9.72323C9.11595 9.72323 7.47266 8.07265 7.47266 6.02828C7.47266 3.98391 9.11595 2.33333 11.1348 2.33333C13.1537 2.33333 14.797 3.98391 14.797 6.02828Z"/>
<path d="M18.4482 18.8157L18.4481 18.816C18.1083 19.9206 16.9632 20.7336 15.6105 20.7336H6.29815C4.94015 20.7336 3.80053 19.921 3.46058 18.816L3.46048 18.8157C2.46957 15.6026 5.14112 12.2949 9.02614 12.2949H12.8826C16.7676 12.2949 19.4391 15.6026 18.4482 18.8157Z"/>
</svg>