<svg width="29" height="29" viewBox="0 0 29 29" fill="none" xmlns="http://www.w3.org/2000/svg">
<path d="M14.4673 0.601562C10.6976 0.601562 10.2279 0.619765 8.75261 0.682173C7.27129 0.754982 6.26929 0.984677 5.38518 1.32792C4.45987 1.67725 3.62187 2.22418 2.92961 2.93059C2.22123 3.62123 1.674 4.45969 1.32694 5.38616C0.983701 6.27027 0.754005 7.27226 0.681196 8.75358C0.614454 10.2297 0.600586 10.6986 0.600586 14.4682C0.600586 18.2378 0.618788 18.7076 0.681196 20.1829C0.754005 21.6599 0.983701 22.6662 1.32694 23.5503C1.67627 24.4756 2.2232 25.3136 2.92961 26.0059C3.62025 26.7142 4.45872 27.2615 5.38518 27.6085C6.26929 27.9474 7.27562 28.1815 8.75261 28.2543C10.2287 28.321 10.6976 28.3349 14.4673 28.3349C18.2369 28.3349 18.7067 28.3167 20.1819 28.2543C21.6589 28.1815 22.6652 27.9466 23.5493 27.6085C24.4746 27.2592 25.3126 26.7123 26.0049 26.0059C26.7142 25.316 27.2616 24.4773 27.6076 23.5503C27.9465 22.6662 28.1805 21.6599 28.2533 20.1829C28.3201 18.7068 28.3339 18.2378 28.3339 14.4682C28.3339 10.6986 28.3157 10.2288 28.2533 8.75358C28.1805 7.2766 27.9456 6.26507 27.6076 5.38616C27.2582 4.46085 26.7113 3.62285 26.0049 2.93059C25.315 2.2213 24.4763 1.67392 23.5493 1.32792C22.6652 0.984677 21.6589 0.754982 20.1819 0.682173C18.7058 0.615431 18.2369 0.601562 14.4673 0.601562ZM14.4673 3.09787C18.1693 3.09787 18.6113 3.11608 20.0744 3.17848C21.424 3.24176 22.159 3.46712 22.647 3.65781C23.2503 3.88051 23.7963 4.23495 24.2453 4.69534C24.7049 5.14245 25.0581 5.68723 25.2785 6.28934C25.4692 6.77733 25.6946 7.51236 25.7579 8.86193C25.8203 10.325 25.8385 10.768 25.8385 14.4691C25.8385 18.1702 25.8203 18.6131 25.7527 20.0763C25.6799 21.4258 25.4545 22.1609 25.2647 22.6489C25.002 23.2998 24.7091 23.7549 24.2254 24.2472C23.7749 24.7047 23.2292 25.0574 22.6271 25.2804C22.1451 25.4711 21.3997 25.6964 20.045 25.7597C18.574 25.8221 18.1406 25.8403 14.4291 25.8403C10.7176 25.8403 10.2851 25.8221 8.81241 25.7545C7.46284 25.6817 6.71829 25.4563 6.23029 25.2665C5.57154 25.0039 5.11995 24.7109 4.63629 24.2272C4.1483 23.7393 3.83799 23.2747 3.59876 22.6289C3.4046 22.147 3.18271 21.4016 3.11077 20.0468C3.06136 18.5932 3.03796 18.1425 3.03796 14.4483C3.03796 10.7558 3.06136 10.3042 3.11077 8.83246C3.18271 7.47769 3.4046 6.734 3.59876 6.25034C3.83799 5.59072 4.14916 5.14 4.63629 4.652C5.11908 4.16921 5.57154 3.85717 6.23029 3.61274C6.71829 3.42292 7.44464 3.19755 8.79941 3.12995C10.2703 3.07707 10.7037 3.058 14.41 3.058L14.4673 3.09787ZM14.4673 7.35114C13.5323 7.3508 12.6064 7.5347 11.7426 7.89233C10.8787 8.24997 10.0938 8.77432 9.43272 9.43543C8.77161 10.0965 8.24726 10.8815 7.88962 11.7453C7.53199 12.6092 7.34809 13.535 7.34843 14.47C7.34809 15.4049 7.53199 16.3308 7.88962 17.1946C8.24726 18.0585 8.77161 18.8434 9.43272 19.5045C10.0938 20.1656 10.8787 20.69 11.7426 21.0476C12.6064 21.4052 13.5323 21.5891 14.4673 21.5888C15.4022 21.5891 16.3281 21.4052 17.1919 21.0476C18.0558 20.69 18.8407 20.1656 19.5018 19.5045C20.1629 18.8434 20.6873 18.0585 21.0449 17.1946C21.4025 16.3308 21.5864 15.4049 21.5861 14.47C21.5864 13.535 21.4025 12.6092 21.0449 11.7453C20.6873 10.8815 20.1629 10.0965 19.5018 9.43543C18.8407 8.77432 18.0558 8.24997 17.1919 7.89233C16.3281 7.5347 15.4022 7.3508 14.4673 7.35114ZM14.4673 19.0925C11.912 19.0925 9.84474 17.0252 9.84474 14.47C9.84474 11.9147 11.912 9.84745 14.4673 9.84745C17.0225 9.84745 19.0898 11.9147 19.0898 14.47C19.0898 17.0252 17.0225 19.0925 14.4673 19.0925Z"/>
</svg>
