<svg width="33" height="32" viewBox="0 0 33 32" fill="none" xmlns="http://www.w3.org/2000/svg">
<path d="M0.5 0V32H32.5V0H0.5ZM24.373 13.4603C24.0461 17.8654 22.1982 20.6386 18.4442 22.1069C18.4442 22.1069 19.2061 18.312 18.0647 16.073C16.0563 12.1496 13.2247 11.1104 10.8864 10.5265L20.5664 6.33753C20.5664 6.33753 24.6824 9.2713 24.373 13.4603ZM10.4515 5.95804C11.3392 5.45304 12.2905 5.06917 13.2801 4.81664L15.7264 7.09943C14.519 6.94057 13.3001 6.88588 12.0833 6.93596C10.6758 7.03271 9.29449 7.36423 7.99644 7.9168C8.74638 7.18248 9.56894 6.52619 10.4515 5.95804ZM17.4108 27.2184C9.96397 27.2184 5.44216 20.5306 5.44216 17.6493H12.0278C12.0278 17.6493 13.4436 22.32 16.5409 23.3038C19.6381 24.2875 21.5035 23.5198 23.2842 22.5419C24.5214 21.8257 25.6714 20.9686 26.7113 19.9876C26.7113 19.9876 24.8605 27.2184 17.4108 27.2184Z"/>
</svg>
