<svg width="29" height="17" viewBox="0 0 29 17" fill="none" xmlns="http://www.w3.org/2000/svg">
<path d="M28.0723 15.9649C27.9537 16.0786 27.8095 16.166 27.6502 16.2209C27.491 16.2758 27.3206 16.2968 27.1516 16.2823H24.1297C23.3853 16.2823 23.0461 15.9608 21.9889 14.8563C21.61 14.4442 21.1739 14.0032 20.6233 13.484C19.478 12.4413 18.6146 11.8355 17.9803 11.6871C17.8392 11.6493 17.6908 11.6415 17.5461 11.6644C17.4013 11.6872 17.2639 11.7401 17.1439 11.8192C17.0239 11.8982 16.9244 12.0015 16.8526 12.1212C16.7808 12.241 16.7387 12.3743 16.7292 12.5114C16.7292 12.8163 16.7292 13.3026 16.7292 13.8178C16.7292 13.8178 16.7292 14.0609 16.7292 14.0692C16.7292 14.436 16.7645 15.3055 16.2447 15.8042C16.0231 15.9781 15.767 16.1095 15.4911 16.1908C15.2153 16.2721 14.925 16.3018 14.6368 16.2781C5.98529 16.2823 0.699219 3.60964 0.699219 1.64384C0.699219 1.40069 0.699219 0.889666 1.67274 0.889666H4.69461C5.39501 0.889666 5.69015 1.13282 5.98529 1.95293C7.17906 5.24987 8.88382 7.89566 9.94984 8.95893C10.084 9.10335 10.263 9.20499 10.4619 9.24966C10.6608 9.29433 10.8696 9.27981 11.0593 9.20811C11.2489 9.13642 11.4099 9.01113 11.5198 8.84973C11.6297 8.68834 11.683 8.49887 11.6722 8.30778C11.6142 7.34694 11.6142 6.3838 11.6722 5.42296C11.7119 4.09182 11.7559 3.22637 10.8309 2.12602C10.6547 1.92408 10.3903 1.53669 10.5445 1.23172C10.6098 1.12754 10.7032 1.04115 10.8152 0.981144C10.9273 0.921138 11.0541 0.889601 11.1833 0.889666H15.9319C16.122 0.874074 16.3119 0.920686 16.4693 1.02154C16.7733 1.31415 16.7468 2.35268 16.7248 3.18104V3.42831C16.7028 4.34321 16.672 5.57544 16.7248 7.18682C16.7295 7.36146 16.7873 7.53122 16.8915 7.67621C16.9956 7.82121 17.1418 7.93543 17.3128 8.00549C17.4839 8.07556 17.6727 8.09856 17.8573 8.07181C18.0418 8.04506 18.2143 7.96966 18.3547 7.85445C19.9581 6.53568 21.8523 3.11098 22.4514 1.67269C22.5415 1.43321 22.712 1.22749 22.9376 1.08633C23.1631 0.945163 23.4315 0.876164 23.7024 0.889666H26.7243C27.3234 0.889666 27.4864 1.08748 27.5348 1.1493C27.5968 1.25454 27.6322 1.37164 27.6383 1.49165C27.6444 1.61166 27.6211 1.73139 27.5701 1.84166C27.5609 1.86588 27.5536 1.89067 27.548 1.91584C27.1736 3.3294 24.4028 7.29809 23.5042 8.41081C23.4602 8.47263 23.3809 8.59626 23.3324 8.68693C23.254 8.82909 23.2168 8.98801 23.2245 9.14782C23.2323 9.30763 23.2846 9.46275 23.3765 9.59771C23.6198 9.90086 23.891 10.1835 24.187 10.4426C25.231 11.4564 27.6714 13.8343 28.1119 15.1283C28.1756 15.261 28.2051 15.4058 28.1982 15.551C28.1914 15.6963 28.1482 15.8381 28.0723 15.9649Z"/>
</svg>