<svg width="104" height="88" viewBox="0 0 104 88" fill="none" xmlns="http://www.w3.org/2000/svg">
<path d="M87.5714 33C91.3967 32.9951 95.0639 31.4484 97.7687 28.6989C100.474 25.9494 101.995 22.2217 102 18.3333V7.33333H91.1786C87.4854 7.33888 83.9364 8.79135 81.2698 11.3887C79.4011 7.94209 76.6577 5.0677 73.3252 3.06474C69.9927 1.06177 66.1929 0.00346809 62.3214 0H51.5V11C51.5067 16.8327 53.7891 22.4245 57.8464 26.5488C61.9038 30.6732 67.4049 32.9932 73.1429 33H76.75V80.6667H33.4643V62.3333H37.0714C40.8967 62.3285 44.5639 60.7817 47.2687 58.0322C49.9735 55.2827 51.4952 51.555 51.5 47.6667V36.6667H40.6786C36.9854 36.6722 33.4364 38.1247 30.7698 40.722C28.9011 37.2754 26.1577 34.401 22.8252 32.3981C19.4927 30.3951 15.6929 29.3368 11.8214 29.3333H1V40.3333C1.00668 46.166 3.28905 51.7579 7.34643 55.8822C11.4038 60.0065 16.9049 62.3265 22.6429 62.3333H26.25V80.6667H1V88H102V80.6667H83.9643V33H87.5714ZM83.9643 22C83.9662 20.0557 84.7269 18.1915 86.0794 16.8167C87.4319 15.4418 89.2658 14.6686 91.1786 14.6667H94.7857V18.3333C94.7838 20.2777 94.0231 22.1418 92.6706 23.5166C91.3181 24.8915 89.4842 25.6647 87.5714 25.6667H83.9643V22ZM33.4643 51.3333C33.4662 49.389 34.2269 47.5249 35.5794 46.15C36.9319 44.7752 38.7658 44.0019 40.6786 44H44.2857V47.6667C44.2838 49.611 43.5231 51.4751 42.1706 52.85C40.8181 54.2248 38.9842 54.9981 37.0714 55H33.4643V51.3333ZM26.25 55H22.6429C18.8176 54.9952 15.1504 53.4484 12.4456 50.6989C9.74074 47.9494 8.21906 44.2217 8.21429 40.3333V36.6667H11.8214C15.6467 36.6715 19.3139 38.2183 22.0187 40.9678C24.7235 43.7173 26.2452 47.445 26.25 51.3333V55ZM76.75 25.6667H73.1429C69.3176 25.6618 65.6504 24.115 62.9456 21.3655C60.2407 18.6161 58.7191 14.8884 58.7143 11V7.33333H62.3214C66.1467 7.33818 69.8139 8.88498 72.5187 11.6345C75.2235 14.3839 76.7452 18.1116 76.75 22V25.6667Z" fill="#FFF"/>
</svg>
