<svg width="82" height="24" viewBox="0 0 82 24" fill="none" xmlns="http://www.w3.org/2000/svg">
<g clip-path="url(#clip0_4442_88256)">
<path d="M10.1784 14.7798C10.6113 14.7599 11.0331 14.6365 11.4084 14.4199V12.5898H9.60846C9.17846 13.3798 9.08846 14.1499 9.47846 14.5399C9.67252 14.7064 9.92297 14.7923 10.1784 14.7798" fill="#F58732"/>
<path d="M9.23905 16.8006C9.99823 16.7741 10.7409 16.5721 11.409 16.2105V15.2105C11.0219 15.3853 10.6036 15.4806 10.179 15.4905C9.95524 15.499 9.73212 15.4627 9.52261 15.3837C9.3131 15.3047 9.12145 15.1847 8.95902 15.0305C8.68734 14.6829 8.52593 14.2618 8.49564 13.8216C8.46534 13.3814 8.56749 12.9422 8.78897 12.5605H7.78897C7.05897 14.0205 6.99897 15.4606 7.78897 16.2206C7.99281 16.409 8.23239 16.5548 8.49344 16.6493C8.75449 16.7437 9.03175 16.7849 9.30899 16.7705" fill="#F58732"/>
<path d="M5.65987 18.3599C5.95225 18.6266 6.29452 18.8328 6.66695 18.9667C7.03938 19.1005 7.43464 19.1594 7.82992 19.1399C9.09062 19.0846 10.319 18.7243 11.4099 18.0898V17.0298C10.7299 17.3489 9.99088 17.5226 9.23995 17.5399V17.5399C8.87235 17.5491 8.50645 17.4859 8.16329 17.3538C7.82013 17.2216 7.50643 17.0232 7.23995 16.7698C6.23995 15.8198 6.23992 14.2298 6.95992 12.5898H5.95992C4.68992 14.9098 4.5099 17.1699 5.6899 18.3599" fill="#F58732"/>
<path d="M3.13162 20.9091C3.48864 21.2468 3.90978 21.5092 4.37014 21.681C4.8305 21.8528 5.32064 21.9304 5.81155 21.9091C7.80938 21.7928 9.74107 21.1512 11.4115 20.0492V18.9091C10.3107 19.5128 9.08583 19.855 7.83157 19.9091C7.33919 19.93 6.84758 19.8523 6.38565 19.6806C5.92371 19.5088 5.50081 19.2466 5.14163 18.9091C3.77163 17.5391 3.84163 15.1191 5.14163 12.6191H4.14163C2.08163 16.0191 1.60157 19.3091 3.21157 20.9291" fill="#F58732"/>
<path d="M5.80994 22.5908C5.22549 22.6188 4.64133 22.5298 4.0918 22.3289C3.54226 22.128 3.03849 21.8192 2.60999 21.4208C1.33999 20.1508 1.09992 18.0308 1.91992 15.4208C2.25074 14.4225 2.68304 13.4609 3.20996 12.5508H0V23.9608H11.46V20.8108C9.76999 21.8539 7.84356 22.4525 5.85999 22.5508" fill="#F58732"/>
<path d="M22.3215 5.29095C21.7419 5.12934 21.1433 5.04527 20.5415 5.04095C20.1698 5.02988 19.7986 5.0771 19.4415 5.18094C19.3719 5.1912 19.3012 5.1912 19.2316 5.18094C19.1521 5.18579 19.0737 5.16086 19.0116 5.11096C18.8716 5.00096 19.0116 4.71096 19.0116 4.70096C19.307 3.4719 19.1801 2.17918 18.6515 1.03094C18.4727 0.648247 18.2478 0.288895 17.9816 -0.0390625H12.6016V11.4109H24.0216V6.08096C23.5236 5.73287 22.9734 5.4662 22.3916 5.29095" fill="#B0D140"/>
<path d="M20.5392 4.32062C21.2156 4.32084 21.8887 4.41507 22.5392 4.60062C22.9074 4.69527 23.2632 4.83288 23.5992 5.01062L21.4592 2.91061L19.1992 0.640625L19.2693 0.790619C19.7877 1.91491 19.9683 3.16559 19.7892 4.39062C20.0456 4.37475 20.3028 4.37475 20.5592 4.39062" fill="#B0D140"/>
<path d="M16.7414 12.5898H15.1914V23.9998H16.7414V12.5898Z" fill="#2CAD97"/>
<path d="M19.0305 12.5898H17.4805V23.9998H19.0305V12.5898Z" fill="#2CAD97"/>
<path d="M21.3312 12.5898H19.7812V23.9998H21.3312V12.5898Z" fill="#2CAD97"/>
<path d="M23.9681 12.5898H22.0781V23.9998H23.9681V12.5898Z" fill="#2CAD97"/>
<path d="M14.4486 12.5898H12.5586V23.9998H14.4486V12.5898Z" fill="#2CAD97"/>
<path d="M9.09998 5.9093C8.29998 7.5493 7.46996 9.2493 5.70996 9.2493C3.94996 9.2493 3.11995 7.5493 2.31995 5.9093C1.65995 4.5693 1.04 3.2993 0 3.0293V11.4493H11.46V3.03931C10.46 3.30931 9.7999 4.5693 9.1499 5.9093" fill="#B16531"/>
<path d="M2.98132 5.54001C3.72132 7.05001 4.4113 8.47 5.7113 8.47C7.0113 8.47 7.71128 7.05001 8.44128 5.54001C9.17128 4.03001 9.93128 2.48999 11.4413 2.23999V0H0.03125V2.23999C1.51125 2.47999 2.27125 4.04001 3.03125 5.54001" fill="#B16531"/>
<path d="M35.6813 11.8007C35.701 10.3837 36.1396 9.00432 36.9418 7.83618C37.7439 6.66803 38.8739 5.7634 40.1892 5.23617C41.5045 4.70894 42.9464 4.58271 44.3334 4.87338C45.7203 5.16405 46.9902 5.85863 47.9831 6.86962C48.9761 7.88062 49.6477 9.16281 49.9133 10.5547C50.179 11.9467 50.0268 13.3861 49.4759 14.6917C48.9251 15.9974 48.0003 17.1107 46.8179 17.8918C45.6355 18.6728 44.2483 19.0864 42.8313 19.0807C41.8805 19.0835 40.9388 18.8962 40.0615 18.5298C39.1842 18.1633 38.3891 17.625 37.7229 16.9467C37.0567 16.2684 36.5328 15.4637 36.1822 14.5799C35.8316 13.6962 35.6613 12.7512 35.6813 11.8007V11.8007ZM48.3813 11.8007C48.4109 11.0516 48.2893 10.3043 48.0242 9.60315C47.759 8.902 47.3556 8.26131 46.8378 7.71926C46.32 7.17722 45.6984 6.74487 45.0101 6.4479C44.3218 6.15093 43.5809 5.99541 42.8313 5.99063C42.0834 5.99372 41.344 6.1485 40.6577 6.44555C39.9714 6.74261 39.3524 7.17579 38.8382 7.7189C38.3241 8.26201 37.9255 8.90377 37.6665 9.60534C37.4075 10.3069 37.2934 11.0538 37.3313 11.8007C37.3032 12.5485 37.4252 13.2944 37.6903 13.9943C37.9554 14.6942 38.358 15.3338 38.8745 15.8754C39.391 16.417 40.0108 16.8497 40.6973 17.1477C41.3837 17.4457 42.123 17.6032 42.8713 17.6107C43.6196 17.6075 44.3594 17.4528 45.0463 17.1558C45.7331 16.8589 46.3527 16.4259 46.8677 15.8829C47.3826 15.3399 47.7822 14.6983 48.0423 13.9967C48.3025 13.2951 48.4178 12.5481 48.3813 11.8007Z" fill="white"/>
<path d="M52.4609 4.75977H62.5509V6.20975H54.0509V10.5298H58.2109C61.2109 10.5298 63.5509 11.7998 63.5509 14.6298C63.5509 17.4598 61.501 18.8298 58.371 18.8298H52.4609V4.75977ZM58.251 17.3898C60.521 17.3898 61.9709 16.5798 61.9709 14.5498C61.9709 12.7798 60.5009 11.9398 58.1709 11.9398H54.0509V17.3898H58.251Z" fill="white"/>
<path d="M72.4615 17.8108C67.9215 17.8108 65.3516 15.4008 65.3516 11.7408C65.3516 8.08075 67.9415 5.69077 72.4615 5.69077V4.30078H74.0515V5.69077C78.5715 5.69077 81.1715 8.08075 81.1715 11.7408C81.1715 15.4008 78.5915 17.8108 74.0515 17.8108V19.3608H72.4615V17.8108ZM72.4615 7.14078C68.9915 7.14078 67.0016 8.78077 67.0016 11.7608C67.0016 14.7408 69.0015 16.3608 72.4615 16.3608V7.14078ZM79.5216 11.7608C79.5216 8.76077 77.5215 7.14078 74.0515 7.14078V16.3608C77.5315 16.3608 79.5216 14.7508 79.5216 11.7608Z" fill="white"/>
</g>
<defs>
<clipPath id="clip0_4442_88256">
<rect width="81.15" height="24" fill="white"/>
</clipPath>
</defs>
</svg>