<svg width="94" height="32" viewBox="0 0 94 32" fill="none" xmlns="http://www.w3.org/2000/svg">
  <path d="M13.5798 19.7093C14.1581 19.6818 14.7211 19.5136 15.2198 19.2193V16.7793H12.8298C12.2398 17.8293 12.1297 18.8693 12.6497 19.3893C12.9058 19.6137 13.2398 19.7285 13.5798 19.7093Z" fill="#F58732"/>
  <path d="M12.3191 22.3993C13.334 22.365 14.327 22.0946 15.2191 21.6093V20.3193C14.7028 20.5514 14.145 20.6772 13.5791 20.6893V20.6893C13.2806 20.6998 12.9829 20.6514 12.7032 20.5467C12.4235 20.442 12.1673 20.2832 11.9491 20.0793C11.5843 19.6154 11.3682 19.0521 11.3289 18.4633C11.2897 17.8745 11.4292 17.2875 11.7291 16.7793H10.3391C9.33907 18.7293 9.27907 20.6493 10.3391 21.6693C10.8847 22.1646 11.6026 22.4266 12.3391 22.3993" fill="#F58732"/>
  <path d="M7.56189 24.4808C8.35474 25.1837 9.39414 25.5434 10.4519 25.4808C12.1321 25.409 13.7694 24.9284 15.2219 24.0808V22.7108C14.3107 23.1285 13.324 23.3564 12.3219 23.3808V23.3808C11.8248 23.4034 11.3281 23.3267 10.8611 23.1549C10.394 22.9832 9.96598 22.72 9.60192 22.3808C8.33192 21.1108 8.27193 18.9908 9.23193 16.8008H7.91186C6.23186 19.9108 5.97189 22.9108 7.56189 24.5008" fill="#F58732"/>
  <path d="M4.19039 27.9103C4.66825 28.35 5.22967 28.689 5.84127 28.9072C6.45287 29.1254 7.10221 29.2182 7.75045 29.1803C10.4141 29.0268 12.9904 28.175 15.2204 26.7103V25.2703C13.7472 26.0495 12.1161 26.4838 10.4504 26.5403C9.79355 26.5692 9.13749 26.4664 8.52096 26.238C7.90442 26.0096 7.33991 25.6602 6.86044 25.2103C5.03043 23.3803 5.12038 20.1603 6.80038 16.8203H5.44039C2.69039 21.3603 2.05041 25.7503 4.21041 27.9103" fill="#F58732"/>
  <path d="M7.76172 30.1193C6.98366 30.1549 6.20635 30.0353 5.47498 29.7675C4.7436 29.4997 4.0729 29.0889 3.50183 28.5593C1.80183 26.8693 1.50179 24.0393 2.58179 20.6093C3.01597 19.2762 3.58908 17.9925 4.29175 16.7793H0.0117188V31.9993H15.2318V27.7993C12.9805 29.1893 10.4142 29.9873 7.77173 30.1193" fill="#F58732"/>
  <path d="M29.7582 7.05002C28.9858 6.83787 28.1891 6.72692 27.3882 6.72C26.8913 6.70748 26.3956 6.77157 25.9182 6.91C25.8319 6.94251 25.7404 6.95942 25.6482 6.95999C25.5441 6.96368 25.442 6.93195 25.3583 6.87C25.1583 6.72 25.2882 6.33001 25.2882 6.32001C25.6718 4.68167 25.503 2.96248 24.8082 1.42999C24.5675 0.920711 24.2688 0.440885 23.9182 0H16.7383V15.22H31.9583V8.11002C31.2953 7.63846 30.5585 7.28026 29.7782 7.05002" fill="#B0D140"/>
  <path d="M27.4407 5.75961C28.3265 5.76635 29.2076 5.89077 30.0607 6.12961C30.5495 6.26053 31.0224 6.44497 31.4707 6.6796L28.6406 3.84961L25.6406 0.849609L25.7407 1.04962C26.4226 2.55142 26.6619 4.21655 26.4307 5.84961C26.7618 5.80107 27.096 5.77767 27.4307 5.7796" fill="#B0D140"/>
  <path d="M22.32 16.7793H20.25V31.9993H22.32V16.7793Z" fill="#2CAD97"/>
  <path d="M25.3786 16.7793H23.3086V31.9993H25.3786V16.7793Z" fill="#2CAD97"/>
  <path d="M28.4411 16.7793H26.3711V31.9993H28.4411V16.7793Z" fill="#2CAD97"/>
  <path d="M31.9497 16.7793H29.4297V31.9993H31.9497V16.7793Z" fill="#2CAD97"/>
  <path d="M19.2583 16.7793H16.7383V31.9993H19.2583V16.7793Z" fill="#2CAD97"/>
  <path d="M12.1399 7.82025C11.0699 10.0103 9.97 12.2802 7.62 12.2802C5.27 12.2802 4.16998 10.0103 3.09998 7.82025C2.22998 6.04025 1.4 4.34023 0 3.99023V15.2202H15.22V3.99023C13.84 4.36023 13.0099 6.04025 12.1399 7.82025" fill="#B16531"/>
  <path d="M3.97913 7.39026C4.97913 9.39026 5.88914 11.3003 7.61914 11.3003C9.34914 11.3003 10.279 9.40026 11.259 7.39026C12.239 5.38026 13.259 3.32023 15.259 2.99023V-0.00976562H0.0390625V2.99023C2.03906 3.31023 3.03906 5.38026 4.03906 7.39026" fill="#B16531"/>
  <path d="M43.8698 15.7605C43.8993 14.2138 44.3851 12.7103 45.2664 11.4389C46.1476 10.1674 47.3849 9.18469 48.8228 8.61408C50.2607 8.04347 51.8351 7.91042 53.3484 8.23166C54.8617 8.55291 56.2463 9.31412 57.3284 10.4197C58.4104 11.5253 59.1418 12.9259 59.4304 14.4457C59.7191 15.9655 59.5523 17.5368 58.9509 18.9621C58.3496 20.3874 57.3404 21.6033 56.0503 22.457C54.7602 23.3107 53.2467 23.7642 51.6997 23.7605C50.6558 23.7649 49.6217 23.5597 48.6586 23.157C47.6955 22.7544 46.823 22.1625 46.0928 21.4165C45.3626 20.6705 44.7896 19.7854 44.4077 18.8139C44.0259 17.8424 43.843 16.8041 43.8698 15.7605V15.7605ZM57.7697 15.7605C57.7127 14.5734 57.3081 13.4293 56.606 12.4704C55.9038 11.5116 54.9352 10.7804 53.8207 10.3677C52.7062 9.95512 51.4949 9.87931 50.3377 10.1498C49.1804 10.4202 48.1281 11.025 47.3119 11.8888C46.4957 12.7526 45.9515 13.8374 45.7471 15.0081C45.5426 16.1789 45.6868 17.3839 46.1619 18.4732C46.637 19.5626 47.4219 20.4882 48.4189 21.135C49.416 21.7817 50.5813 22.1209 51.7697 22.1105C52.5854 22.1034 53.3914 21.9316 54.1392 21.6055C54.8869 21.2794 55.5611 20.8057 56.1213 20.2127C56.6816 19.6198 57.1164 18.9198 57.3997 18.1548C57.6829 17.3897 57.8087 16.5754 57.7697 15.7605" fill="white"/>
  <path d="M62.2704 8.06055H73.2704V9.64056H63.9705V14.3705H68.5204C71.8004 14.3705 74.3705 15.7606 74.3705 18.8606C74.3705 21.9606 72.1304 23.4605 68.7004 23.4605H62.2305L62.2704 8.06055ZM68.6105 21.8705C71.0905 21.8705 72.6804 20.9905 72.6804 18.7705C72.6804 16.8405 71.0704 15.9106 68.5204 15.9106H64.0104V21.9106L68.6105 21.8705Z" fill="white"/>
  <path d="M84.0886 22.3306C79.0886 22.3306 76.3086 19.6906 76.3086 15.6906C76.3086 11.6906 79.1486 9.07056 84.0886 9.07056V7.56055H85.8286V9.07056C90.7786 9.07056 93.6187 11.6906 93.6187 15.6906C93.6187 19.6906 90.7986 22.3306 85.8286 22.3306V24.0305H84.0886V22.3306ZM84.0886 10.6606C80.2886 10.6606 78.0886 12.4605 78.0886 15.7105C78.0886 18.9605 80.2686 20.7105 84.0886 20.7105V10.6606ZM91.8086 15.7105C91.8086 12.4605 89.6386 10.6606 85.8086 10.6606V20.7505C89.6186 20.7505 91.8086 18.9905 91.8086 15.7505" fill="white"/>
  </svg>  