<svg width="112" height="39" viewBox="0 0 112 39" fill="none" xmlns="http://www.w3.org/2000/svg">
<path d="M16.1397 23.4089C16.7362 23.4089 17.4174 23.1958 18.0928 22.8279V19.9316H15.248C14.5521 21.1783 14.4234 22.4045 15.0374 23.0206C15.2918 23.2775 15.6631 23.4089 16.1397 23.4089Z" fill="#F08322"/>
<path d="M14.6484 26.5961C15.7156 26.5961 16.9085 26.2604 18.0956 25.6618V24.129C17.4289 24.4181 16.7652 24.5728 16.1425 24.5728C15.356 24.5728 14.6893 24.3217 14.2128 23.8429C13.3152 22.9466 13.2713 21.4576 13.9467 19.9277H12.2918C11.1428 22.2401 11.0346 24.5144 12.2421 25.7261C12.8123 26.2954 13.6426 26.5961 14.6484 26.5961Z" fill="#F08322"/>
<path d="M8.98067 29.0671C9.79056 29.8758 10.9805 30.305 12.422 30.305C14.1499 30.305 16.1206 29.7065 18.0912 28.6467V26.9621C16.9188 27.4817 15.7405 27.7649 14.6441 27.7649C13.3225 27.7649 12.2056 27.3445 11.4103 26.5533C9.89874 25.0439 9.82272 22.5272 10.9689 19.9316H9.40462C7.3989 23.6133 7.10067 27.1869 8.98067 29.0671Z" fill="#F08322"/>
<path d="M4.97714 33.0932C5.98 34.0947 7.40681 34.6027 9.21957 34.6027C11.8568 34.6027 14.9678 33.5429 18.0962 31.6685V29.9576C16.1314 30.9327 14.1725 31.4729 12.427 31.4729C10.6698 31.4729 9.19325 30.9269 8.15823 29.8933C5.98 27.7182 6.09111 23.8965 8.08513 19.9316H6.44196C3.17316 25.3212 2.40712 30.5298 4.97714 33.0932Z" fill="#F08322"/>
<path d="M9.21873 35.7705C7.1136 35.7705 5.36224 35.1311 4.14887 33.9195C2.13145 31.905 1.74258 28.5503 3.05244 24.4746C3.53195 22.9826 4.22196 21.4528 5.09033 19.9316H0V38.0011H18.0954V33.0144C14.9786 34.7808 11.8823 35.7705 9.21873 35.7705Z" fill="#F08322"/>
<path d="M35.3856 8.37636C34.4003 8.11359 33.4501 7.97929 32.5671 7.97929C31.4443 7.97929 30.8245 8.20118 30.8186 8.2041C30.8157 8.20702 30.6666 8.26833 30.4912 8.26833C30.3567 8.26833 30.2397 8.23038 30.1462 8.15739C29.9152 7.97637 30.0643 7.52091 30.0702 7.50047C30.1023 7.38661 30.8508 4.64802 29.4883 1.69629C29.1813 1.02478 28.81 0.464218 28.4358 0H19.9041V18.0665H37.9995L37.9703 9.62303C37.1925 9.09458 36.3095 8.62452 35.3856 8.37636Z" fill="#B1D34A"/>
<path d="M32.5643 6.83527C33.5467 6.83527 34.5934 6.98417 35.6811 7.27321C36.2658 7.43087 36.8301 7.6586 37.3622 7.93012L33.994 4.56381L30.4095 0.984375C30.4475 1.0632 30.4913 1.13911 30.5264 1.22086C31.6141 3.58575 31.5176 5.78421 31.3509 6.91994C31.731 6.86447 32.1403 6.83527 32.5643 6.83527Z" fill="#B1D34A"/>
<path d="M26.5444 19.9277H24.0826V37.9972H26.5444V19.9277Z" fill="#268E80"/>
<path d="M30.1807 19.9277H27.7189V37.9972H30.1807V19.9277Z" fill="#268E80"/>
<path d="M33.8227 19.9277H31.3608V37.9972H33.8227V19.9277Z" fill="#268E80"/>
<path d="M37.9974 19.9277H34.9976V37.9972H37.9974V19.9277Z" fill="#268E80"/>
<path d="M22.9067 19.9277H19.904V37.9972H22.9067V19.9277Z" fill="#268E80"/>
<path d="M14.4348 9.28995C13.1629 11.8913 11.8501 14.5803 9.05792 14.5803C6.2657 14.5803 4.95291 11.8913 3.68106 9.28995C2.64311 7.17032 1.65487 5.1587 0 4.73828V18.0663H18.0954V4.74412C16.4493 5.17038 15.4669 7.17615 14.4348 9.28995Z" fill="#B16531"/>
<path d="M4.7307 8.77926C5.89437 11.1617 6.99665 13.4127 9.055 13.4127C11.1134 13.4127 12.2156 11.1617 13.3793 8.77926C14.5459 6.39394 15.7505 3.94439 18.0925 3.55024V0H0V3.54732C2.35366 3.92979 3.56411 6.3881 4.7307 8.77926Z" fill="#B16531"/>
<path d="M60.78 29.28C65.932 29.28 70.16 25.22 70.16 19.2C70.16 13.18 65.932 9.12 60.78 9.12C55.628 9.12 51.4 13.18 51.4 19.2C51.4 25.22 55.628 29.28 60.78 29.28ZM60.78 27.18C56.86 27.18 53.64 23.988 53.64 19.2C53.64 14.412 56.86 11.22 60.78 11.22C64.7 11.22 67.92 14.412 67.92 19.2C67.92 23.988 64.7 27.18 60.78 27.18ZM73.7869 29H82.6069C85.5469 29 87.9269 26.76 87.9269 23.4C87.9269 20.04 85.5469 17.8 82.6069 17.8H76.0269V11.5H86.9469V9.4H73.7869V29ZM76.0269 26.9V19.9H82.6069C84.4269 19.9 85.6869 21.272 85.6869 23.4C85.6869 25.528 84.4269 26.9 82.6069 26.9H76.0269ZM99.4003 29.56H101.64V26.48H102.06C107.352 26.48 110.6 23.26 110.6 18.92C110.6 14.58 107.352 11.36 102.06 11.36H101.64V8.84H99.4003V11.36H98.9803C93.6883 11.36 90.4403 14.58 90.4403 18.92C90.4403 23.26 93.6883 26.48 98.9803 26.48H99.4003V29.56ZM101.64 24.52V13.32H102.06C105.98 13.32 108.36 15.7 108.36 18.92C108.36 22.14 105.98 24.52 102.06 24.52H101.64ZM98.9803 24.52C95.0603 24.52 92.6803 22.14 92.6803 18.92C92.6803 15.7 95.0603 13.32 98.9803 13.32H99.4003V24.52H98.9803Z" fill="white"/>
</svg>