<svg width="85" height="32" viewBox="0 0 85 32" fill="none" xmlns="http://www.w3.org/2000/svg">
<path d="M44.47 24.22C48.518 24.22 51.84 21.03 51.84 16.3C51.84 11.57 48.518 8.38 44.47 8.38C40.422 8.38 37.1 11.57 37.1 16.3C37.1 21.03 40.422 24.22 44.47 24.22ZM44.47 22.57C41.39 22.57 38.86 20.062 38.86 16.3C38.86 12.538 41.39 10.03 44.47 10.03C47.55 10.03 50.08 12.538 50.08 16.3C50.08 20.062 47.55 22.57 44.47 22.57ZM54.6897 24H61.6197C63.9297 24 65.7997 22.24 65.7997 19.6C65.7997 16.96 63.9297 15.2 61.6197 15.2H56.4497V10.25H65.0297V8.6H54.6897V24ZM56.4497 22.35V16.85H61.6197C63.0497 16.85 64.0397 17.928 64.0397 19.6C64.0397 21.272 63.0497 22.35 61.6197 22.35H56.4497ZM74.8145 24.44H76.5745V22.02H76.9045C81.0625 22.02 83.6145 19.49 83.6145 16.08C83.6145 12.67 81.0625 10.14 76.9045 10.14H76.5745V8.16H74.8145V10.14H74.4845C70.3265 10.14 67.7745 12.67 67.7745 16.08C67.7745 19.49 70.3265 22.02 74.4845 22.02H74.8145V24.44ZM76.5745 20.48V11.68H76.9045C79.9845 11.68 81.8545 13.55 81.8545 16.08C81.8545 18.61 79.9845 20.48 76.9045 20.48H76.5745ZM74.4845 20.48C71.4045 20.48 69.5345 18.61 69.5345 16.08C69.5345 13.55 71.4045 11.68 74.4845 11.68H74.8145V20.48H74.4845Z" fill="white"/>
<path d="M10.1935 18.784C10.5702 18.784 11.0005 18.6494 11.427 18.4171V16.5879H9.63029C9.1908 17.3753 9.10955 18.1497 9.49734 18.5388C9.65799 18.7011 9.89251 18.784 10.1935 18.784Z" fill="#F08322"/>
<path d="M9.25161 20.7975C9.92562 20.7975 10.679 20.5855 11.4288 20.2075V19.2394C11.0077 19.422 10.5886 19.5197 10.1952 19.5197C9.69849 19.5197 9.27746 19.3611 8.97646 19.0587C8.40955 18.4926 8.38186 17.5522 8.80842 16.5859H7.76324C7.03752 18.0464 6.9692 19.4828 7.73185 20.248C8.09194 20.6076 8.61637 20.7975 9.25161 20.7975Z" fill="#F08322"/>
<path d="M5.67203 22.3577C6.18354 22.8684 6.93511 23.1395 7.84549 23.1395C8.93683 23.1395 10.1814 22.7615 11.4261 22.0921V21.0282C10.6856 21.3564 9.94139 21.5352 9.24891 21.5352C8.41424 21.5352 7.70884 21.2697 7.20656 20.77C6.25186 19.8167 6.20385 18.2272 6.92772 16.5879H5.93979C4.67301 18.9131 4.48466 21.1701 5.67203 22.3577Z" fill="#F08322"/>
<path d="M3.14342 24.9005C3.7768 25.533 4.67795 25.8538 5.82285 25.8538C7.48849 25.8538 9.45328 25.1844 11.4291 24.0006V22.9201C10.1882 23.5359 8.951 23.8771 7.84858 23.8771C6.73876 23.8771 5.80623 23.5323 5.15253 22.8795C3.7768 21.5057 3.84698 19.092 5.10636 16.5879H4.06857C2.00406 19.9918 1.52025 23.2815 3.14342 24.9005Z" fill="#F08322"/>
<path d="M5.82236 26.5914C4.4928 26.5914 3.38668 26.1876 2.62034 25.4223C1.34618 24.15 1.10058 22.0313 1.92786 19.4571C2.2307 18.5148 2.6665 17.5486 3.21495 16.5879H0V28.0002H11.4287V24.8507C9.46018 25.9663 7.50462 26.5914 5.82236 26.5914Z" fill="#F08322"/>
<path d="M22.3488 9.29033C21.7265 9.12437 21.1263 9.03955 20.5686 9.03955C19.8595 9.03955 19.4681 9.17969 19.4644 9.18154C19.4625 9.18338 19.3684 9.2221 19.2576 9.2221C19.1726 9.2221 19.0987 9.19813 19.0397 9.15203C18.8938 9.03771 18.9879 8.75005 18.9916 8.73714C19.012 8.66523 19.4847 6.93559 18.6242 5.07134C18.4303 4.64723 18.1958 4.29319 17.9594 4H12.571V15.4104H23.9996L23.9812 10.0777C23.49 9.74395 22.9323 9.44707 22.3488 9.29033Z" fill="#B1D34A"/>
<path d="M20.5669 8.3164C21.1873 8.3164 21.8484 8.41044 22.5354 8.59299C22.9047 8.69256 23.2611 8.83639 23.5972 9.00788L21.4699 6.88179L19.2059 4.62109C19.2299 4.67088 19.2576 4.71882 19.2798 4.77045C19.9667 6.26406 19.9058 7.65257 19.8005 8.36987C20.0406 8.33484 20.2991 8.3164 20.5669 8.3164Z" fill="#B1D34A"/>
<path d="M16.7649 16.5859H15.21V27.9982H16.7649V16.5859Z" fill="#268E80"/>
<path d="M19.0615 16.5859H17.5067V27.9982H19.0615V16.5859Z" fill="#268E80"/>
<path d="M21.3617 16.5859H19.8068V27.9982H21.3617V16.5859Z" fill="#268E80"/>
<path d="M23.9983 16.5859H22.1037V27.9982H23.9983V16.5859Z" fill="#268E80"/>
<path d="M14.4674 16.5859H12.5709V27.9982H14.4674V16.5859Z" fill="#268E80"/>
<path d="M9.11671 9.86693C8.31343 11.5099 7.4843 13.2082 5.72079 13.2082C3.95728 13.2082 3.12815 11.5099 2.32488 9.86693C1.66933 8.52821 1.04518 7.25772 0 6.99219V15.4099H11.4287V6.99588C10.389 7.26509 9.76856 8.5319 9.11671 9.86693Z" fill="#B16531"/>
<path d="M2.98781 9.5448C3.72276 11.0495 4.41893 12.4712 5.71895 12.4712C7.01896 12.4712 7.71513 11.0495 8.45008 9.5448C9.18688 8.03828 9.94768 6.49119 11.4268 6.24226V4H0V6.24041C1.48652 6.48197 2.25102 8.03459 2.98781 9.5448Z" fill="#B16531"/>
</svg>
