<svg xmlns="http://www.w3.org/2000/svg" xmlns:xlink="http://www.w3.org/1999/xlink" width="0" height="0" style="position:absolute">
	
		<symbol id="arrow-circle-next" viewBox="0 0 48 48">
			<path d="M15.193 23.883h17.391M26 17.332l6.667 6.667L26 30.665"></path><circle cx="24" cy="24" r="23"></circle>
		</symbol>
	
		<symbol id="arrow-circle-prev" viewBox="0 0 48 48">
			<g opacity=".5"><path d="M32.807 23.883H15.416M22 17.332l-6.667 6.667L22 30.665"></path><circle r="23" transform="matrix(-1 0 0 1 24 24)"></circle></g>
		</symbol>
	
		<symbol id="arrow-down" viewBox="0 0 12 7">
			<path d="M1.913 0L.621 1.332 6.12 7l5.5-5.668L10.328 0 6.121 4.327 1.913 0z" fill="#1D1D1D"></path>
		</symbol>
	
		<symbol id="blank" viewBox="0 0 24 24">
			<path d="M1 1h14.174v14.174H1z"></path><path d="M8.826 8.824H23v14.174H8.826z"></path>
		</symbol>
	
		<symbol id="btn-arrow" viewBox="0 0 26 10">
			<path d="M1 1l12 8 12-8"></path>
		</symbol>
	
		<symbol id="childs-toggler" viewBox="0 0 10 5">
			<path opacity=".5" d="M1 1l4 3 4-3" stroke="#fff"></path>
		</symbol>
	
		<symbol id="circle-btn-arrow" viewBox="0 0 32 32">
			<path d="M1.91 15.81h27.825M19.2 5.334l10.666 10.667-10.667 10.666"></path>
		</symbol>
	
		<symbol id="fb" viewBox="0 0 21 34">
			<path d="M19.009 21.105l1.014-6.547h-6.341v-4.249c0-1.79.886-3.537 3.726-3.537h2.882V1.198S17.675.756 15.173.756C9.952.756 6.54 3.892 6.54 9.569v4.99H.734v6.547H6.54v15.828h7.143V21.106l5.327-.001z"></path>
		</symbol>
	
		<symbol id="header-search" viewBox="0 0 22 22">
			<circle cx="10.085" cy="9.167" r="6.417"></circle><path d="M14.668 13.292l5.042 5.041"></path>
		</symbol>
	
		<symbol id="header-user" viewBox="0 0 22 22">
			<path d="M14.797 6.028c0 2.045-1.643 3.695-3.662 3.695s-3.662-1.65-3.662-3.695c0-2.044 1.643-3.695 3.662-3.695s3.662 1.65 3.662 3.695zM18.448 18.816c-.34 1.105-1.485 1.918-2.838 1.918H6.299c-1.358 0-2.497-.813-2.837-1.918-.991-3.213 1.68-6.521 5.565-6.521h3.857c3.885 0 6.556 3.308 5.565 6.52z"></path>
		</symbol>
	
		<symbol id="logout" viewBox="0 0 24 24">
			<path d="M19 21h-9a2 2 0 0 1-2-2v-4h2v4h9V5h-9v4H8V5a2 2 0 0 1 2-2h9a2 2 0 0 1 2 2v14a2 2 0 0 1-2 2zm-7-5v-3H3v-2h9V8l5 4-5 4z" fill="#FF2689"></path>
		</symbol>
	
		<symbol id="menu" viewBox="0 0 16 16">
			<path d="M7.111 3.556h5.333v1.777H7.111V3.556zm0 3.555h5.333V8.89H7.111V7.11zm0 3.556h5.333v1.777H7.111v-1.777zM3.556 3.556h1.777v1.777H3.556V3.556zm0 3.555h1.777V8.89H3.556V7.11zm0 3.556h1.777v1.777H3.556v-1.777zM15.2 0H.8C.356 0 0 .356 0 .8v14.4c0 .356.356.8.8.8h14.4c.356 0 .8-.444.8-.8V.8c0-.444-.444-.8-.8-.8zm-.978 14.222H1.778V1.778h12.444v12.444z" fill="#071013"></path>
		</symbol>
	
		<symbol id="next" viewBox="0 0 8 12">
			<path d="M.59 10.59L5.17 6 .59 1.41 2 0l6 6-6 6-1.41-1.41z" fill="#FF2689"></path>
		</symbol>
	
		<symbol id="play" viewBox="0 0 103 104">
			<path d="M37.362 27.89l42.326 24.106-42.326 24.106V27.89z"></path><path d="M100.785 52c0 27.51-22.089 49.78-49.298 49.78-27.21 0-49.299-22.27-49.299-49.78 0-27.511 22.09-49.781 49.299-49.781s49.298 22.27 49.298 49.78z"></path>
		</symbol>
	
		<symbol id="refresh" viewBox="0 0 24 24">
			<path d="M11.995 4a8 8 0 1 0 7.735 10h-2.081a6 6 0 1 1-5.654-8 5.92 5.92 0 0 1 4.223 1.78L13 11h7V4l-2.351 2.35A7.965 7.965 0 0 0 11.995 4z" fill="#1D1D1D"></path>
		</symbol>
	
		<symbol id="slider-arrow-left_orange" viewBox="0 0 64 64">
			<path d="M1 32C1 14.88 14.88 1 32 1c17.12 0 31 13.88 31 31 0 17.12-13.88 31-31 31C14.88 63 1 49.12 1 32z" stroke="#F08322" stroke-width="2"></path><path d="M46.09 31.813H18.265M28.8 21.336L18.135 32.003l10.667 10.666" stroke="#F08322" stroke-width="2" stroke-miterlimit="10"></path>
		</symbol>
	
		<symbol id="slider-arrow-next" viewBox="0 0 64 64">
			<path d="M63 32C63 14.88 49.12 1 32 1 14.88 1 1 14.88 1 32c0 17.12 13.88 31 31 31 17.12 0 31-13.88 31-31z" stroke="#222E3F" stroke-width="2"></path><path d="M17.91 31.813h27.825M35.2 21.336l10.666 10.667-10.667 10.666" stroke="#222E3F" stroke-width="2" stroke-miterlimit="10"></path>
		</symbol>
	
		<symbol id="slider-arrow-prev" viewBox="0 0 64 64">
			<path d="M1 32C1 14.88 14.88 1 32 1c17.12 0 31 13.88 31 31 0 17.12-13.88 31-31 31C14.88 63 1 49.12 1 32z" stroke="#222E3F" stroke-width="2"></path><path d="M46.09 31.813H18.265M28.8 21.336L18.135 32.003l10.667 10.666" stroke="#222E3F" stroke-width="2" stroke-miterlimit="10"></path>
		</symbol>
	
		<symbol id="slider-arrow-right_orange" viewBox="0 0 64 64">
			<path d="M63 32C63 14.88 49.12 1 32 1 14.88 1 1 14.88 1 32c0 17.12 13.88 31 31 31 17.12 0 31-13.88 31-31z" stroke="#F08322" stroke-width="2"></path><path d="M17.91 31.813h27.825M35.2 21.336l10.666 10.667-10.667 10.666" stroke="#F08322" stroke-width="2" stroke-miterlimit="10"></path>
		</symbol>
	
		<symbol id="vk" viewBox="0 0 29 17">
			<path d="M28.072 15.965a1.151 1.151 0 0 1-.422.256c-.159.055-.33.076-.498.061H24.13c-.745 0-1.084-.321-2.141-1.426a26.916 26.916 0 0 0-1.366-1.372c-1.145-1.043-2.008-1.649-2.643-1.797a1.048 1.048 0 0 0-.836.132.944.944 0 0 0-.291.302.876.876 0 0 0-.124.39V14.07c0 .367.036 1.236-.484 1.735a2.251 2.251 0 0 1-.754.387 2.345 2.345 0 0 1-.854.087C5.985 16.282.699 3.61.699 1.644.7 1.4.7.89 1.673.89h3.022c.7 0 .995.243 1.29 1.063C7.18 5.25 8.884 7.896 9.95 8.959a.996.996 0 0 0 .512.29c.199.045.408.03.597-.04a.97.97 0 0 0 .46-.36.874.874 0 0 0 .153-.541 23.936 23.936 0 0 1 0-2.885c.04-1.331.084-2.197-.841-3.297-.176-.202-.44-.59-.287-.894a.72.72 0 0 1 .271-.25.78.78 0 0 1 .368-.092h4.749c.19-.016.38.03.537.132.304.292.278 1.33.256 2.159v.247c-.022.915-.053 2.147 0 3.759a.878.878 0 0 0 .166.49.97.97 0 0 0 .422.328 1.044 1.044 0 0 0 1.042-.15c1.603-1.32 3.497-4.744 4.096-6.182.09-.24.261-.446.487-.587a1.32 1.32 0 0 1 .764-.196h3.022c.6 0 .762.197.81.26a.749.749 0 0 1 .036.692.537.537 0 0 0-.022.074c-.374 1.413-3.145 5.382-4.044 6.495a3.077 3.077 0 0 0-.172.276.867.867 0 0 0 .044.91c.244.304.515.587.811.846 1.044 1.013 3.484 3.391 3.925 4.685a.879.879 0 0 1-.04.837z"></path>
		</symbol>
	
		<symbol id="zoom" viewBox="0 0 59 59">
			<path d="M31.988 27.13l10.944-10.943M34.668 16.21h8.39v8.392M27.281 32.14L16.337 43.086M24.602 43.06H16.21v-8.39M31.988 27.13l10.944-10.943"></path><path d="M34.668 16.21h8.39v8.392M27.281 32.14L16.337 43.086M24.602 43.06H16.21v-8.39"></path><circle cx="29.5" cy="29.5" r="28"></circle>
		</symbol>
	
</svg>
