<svg xmlns="http://www.w3.org/2000/svg" xmlns:xlink="http://www.w3.org/1999/xlink" width="0" height="0" style="position:absolute">
	
		<symbol id="Subtract" viewBox="0 0 40 40">
			<path fill-rule="evenodd" clip-rule="evenodd" d="M2 28.205V38h10.5v2H0V28.205h2zM12.5 2H2v10.82H0V0h12.5v2zM38 12.82V2H27.5V0H40v12.82h-2zM27.5 38H38v-9.795h2V40H27.5v-2z" fill="#F08322"></path>
		</symbol>
	
		<symbol id="arrow-circle-next" viewBox="0 0 48 48">
			<path d="M15.193 23.883h17.391M26 17.332l6.667 6.667L26 30.665"></path><circle cx="24" cy="24" r="23"></circle>
		</symbol>
	
		<symbol id="arrow-circle-prev" viewBox="0 0 48 48">
			<g opacity=".5"><path d="M32.807 23.883H15.416M22 17.332l-6.667 6.667L22 30.665"></path><circle r="23" transform="matrix(-1 0 0 1 24 24)"></circle></g>
		</symbol>
	
		<symbol id="arrow-down" viewBox="0 0 12 7">
			<path d="M1.913 0L.621 1.332 6.12 7l5.5-5.668L10.328 0 6.121 4.327 1.913 0z" fill="#1D1D1D"></path>
		</symbol>
	
		<symbol id="arrow-title" viewBox="0 0 21 20">
			<path d="M1.193 9.883h17.391M12 3.332l6.667 6.667L12 16.665" stroke="#F08322" stroke-width="3" stroke-miterlimit="10"></path>
		</symbol>
	
		<symbol id="blank" viewBox="0 0 24 24">
			<path d="M1 1h14.174v14.174H1z"></path><path d="M8.826 8.824H23v14.174H8.826z"></path>
		</symbol>
	
		<symbol id="btn-arrow" viewBox="0 0 26 10">
			<path d="M1 1l12 8 12-8"></path>
		</symbol>
	
		<symbol id="btn-tab-blue" viewBox="0 0 24 24">
			<path d="M23.602 15.386H24V9.943h-.174A9.773 9.773 0 0 1 14.052.174V0h-5.42c0 .134-.01.268-.01.405a14.988 14.988 0 0 0 14.98 14.98z" fill="#4590BA"></path><path d="M23.826 8.158H24V0h-8.154v.174a7.992 7.992 0 0 0 7.98 7.984zM16.081 15.395A16.777 16.777 0 0 1 6.831.407c0-.136 0-.27.012-.405H0v15.393h16.081zM23.913 17.168v.016H0V24h24v-6.836l-.087.004z" fill="#4590BA"></path>
		</symbol>
	
		<symbol id="btn-tab-green" viewBox="0 0 24 24">
			<path d="M23.602 15.386H24V9.943h-.174A9.773 9.773 0 0 1 14.052.174V0h-5.42c0 .134-.01.268-.01.405a14.988 14.988 0 0 0 14.98 14.98z" fill="#268E80"></path><path d="M23.826 8.158H24V0h-8.154v.174a7.992 7.992 0 0 0 7.98 7.984zM16.081 15.395A16.777 16.777 0 0 1 6.831.407c0-.136 0-.27.012-.405H0v15.393h16.081zM23.913 17.168v.016H0V24h24v-6.836l-.087.004z" fill="#268E80"></path>
		</symbol>
	
		<symbol id="btn-tab-group-white" viewBox="0 0 24 24">
			<path d="M23.602 15.386H24V9.943h-.174A9.773 9.773 0 0 1 14.052.174V0h-5.42c0 .134-.01.268-.01.405a14.988 14.988 0 0 0 14.98 14.98z" fill="#fff"></path><path d="M23.826 8.158H24V0h-8.154v.174a7.992 7.992 0 0 0 7.98 7.984zM16.081 15.395A16.777 16.777 0 0 1 6.831.407c0-.136 0-.27.012-.405H0v15.393h16.081zM23.913 17.168v.016H0V24h24v-6.836l-.087.004z" fill="#fff"></path>
		</symbol>
	
		<symbol id="btn-tab-td" viewBox="0 0 24 24">
			<path d="M9.77 16.122c.261.25.965 1.426-.927 5.995A40.32 40.32 0 0 1 7.997 24H0V0h23.996v8.003c-1.738-1.833-4.85-4.241-9.131-4.116-6.297.185-10.396 4.995-10.21 11.967a.879.879 0 0 0 1.538.556c.007-.01.877-.971 1.947-1.017.567-.011 1.098.208 1.63.73z" fill="#fff"></path><path d="M6.466 14.061c.474-5.032 3.658-8.275 8.452-8.416 5.143-.151 8.46 4.243 9.082 5.122V24H9.94c.175-.387.35-.787.52-1.193 1.685-4.068 1.85-6.667.532-7.95-.886-.853-1.868-1.264-2.925-1.22a4.012 4.012 0 0 0-1.601.424z" fill="#fff"></path>
		</symbol>
	
		<symbol id="btn-tab-td-orange" viewBox="0 0 24 24">
			<path d="M9.77 16.122c.261.25.965 1.426-.927 5.995A40.32 40.32 0 0 1 7.997 24H0V0h23.996v8.003c-1.738-1.833-4.85-4.241-9.131-4.116-6.297.185-10.396 4.995-10.21 11.967a.879.879 0 0 0 1.538.556c.007-.01.877-.971 1.947-1.017.567-.011 1.098.208 1.63.73z" fill="#F68833"></path><path d="M6.466 14.061c.474-5.032 3.658-8.275 8.452-8.416 5.143-.151 8.46 4.243 9.082 5.122V24H9.94c.175-.387.35-.787.52-1.193 1.685-4.068 1.85-6.667.532-7.95-.886-.853-1.868-1.264-2.925-1.22a4.012 4.012 0 0 0-1.601.424z" fill="#F68833"></path>
		</symbol>
	
		<symbol id="btn-tab-tertiary" viewBox="0 0 24 24">
			<path d="M23.602 15.386H24V9.943h-.174A9.773 9.773 0 0 1 14.052.174V0h-5.42c0 .134-.01.268-.01.405a14.988 14.988 0 0 0 14.98 14.98z" fill="#97B446"></path><path d="M23.826 8.158H24V0h-8.154v.174a7.992 7.992 0 0 0 7.98 7.984zM16.081 15.395A16.777 16.777 0 0 1 6.831.407c0-.136 0-.27.012-.405H0v15.393h16.081zM23.913 17.168v.016H0V24h24v-6.836l-.087.004z" fill="#97B446"></path>
		</symbol>
	
		<symbol id="childs-toggler" viewBox="0 0 10 5">
			<path opacity=".5" d="M1 1l4 3 4-3" stroke="#fff"></path>
		</symbol>
	
		<symbol id="circle-btn-arrow" viewBox="0 0 32 32">
			<path d="M1.91 15.81h27.825M19.2 5.334l10.666 10.667-10.667 10.666"></path>
		</symbol>
	
		<symbol id="contacts-map-minus" viewBox="0 0 20 20">
			<path fill="#F08322" d="M9.001 0h2v19.844h-2z"></path><path fill="#F08322" d="M0 10.824V9.02h20v1.804z"></path>
		</symbol>
	
		<symbol id="contacts-map-plus" viewBox="0 0 20 2">
			<path fill="#F08322" d="M0 1.805V0h20v1.804z"></path>
		</symbol>
	
		<symbol id="fb" viewBox="0 0 21 34">
			<path d="M19.009 21.105l1.014-6.547h-6.341v-4.249c0-1.79.886-3.537 3.726-3.537h2.882V1.198S17.675.756 15.173.756C9.952.756 6.54 3.892 6.54 9.569v4.99H.734v6.547H6.54v15.828h7.143V21.106l5.327-.001z"></path>
		</symbol>
	
		<symbol id="header-search" viewBox="0 0 22 22">
			<circle cx="10.085" cy="9.167" r="6.417"></circle><path d="M14.668 13.292l5.042 5.041"></path>
		</symbol>
	
		<symbol id="header-user" viewBox="0 0 22 22">
			<path d="M14.797 6.028c0 2.045-1.643 3.695-3.662 3.695s-3.662-1.65-3.662-3.695c0-2.044 1.643-3.695 3.662-3.695s3.662 1.65 3.662 3.695zM18.448 18.816c-.34 1.105-1.485 1.918-2.838 1.918H6.299c-1.358 0-2.497-.813-2.837-1.918-.991-3.213 1.68-6.521 5.565-6.521h3.857c3.885 0 6.556 3.308 5.565 6.52z"></path>
		</symbol>
	
		<symbol id="logos" viewBox="0 0 24 25">
			<path d="M10.194 14.786c.376 0 .807-.135 1.233-.367v-1.83H9.63c-.44.788-.52 1.563-.133 1.952.161.162.396.245.697.245z" fill="#F08322"></path><path d="M9.252 16.798c.674 0 1.427-.212 2.177-.59v-.969a3.13 3.13 0 0 1-1.234.28c-.496 0-.917-.158-1.218-.46-.567-.566-.595-1.507-.168-2.473H7.763c-.725 1.46-.794 2.897-.031 3.662.36.36.885.55 1.52.55z" fill="#F08322"></path><path d="M5.672 18.36c.511.51 1.263.781 2.173.781 1.092 0 2.336-.378 3.58-1.047V17.03c-.74.328-1.484.507-2.176.507-.835 0-1.54-.265-2.043-.765-.954-.953-1.002-2.543-.279-4.182H5.94c-1.267 2.325-1.456 4.582-.268 5.77z" fill="#F08322"></path><path d="M3.144 20.902c.633.633 1.534.954 2.68.954 1.665 0 3.63-.67 5.605-1.853v-1.081c-1.24.616-2.478.957-3.58.957-1.11 0-2.043-.345-2.696-.998-1.376-1.373-1.306-3.787-.046-6.291H4.069c-2.065 3.404-2.549 6.693-.925 8.312z" fill="#F08322"></path><path d="M5.822 22.593c-1.33 0-2.435-.404-3.202-1.169-1.274-1.272-1.52-3.39-.692-5.965a15.25 15.25 0 0 1 1.287-2.87H0v11.413h11.429v-3.15c-1.969 1.116-3.924 1.741-5.607 1.741z" fill="#F08322"></path><path d="M22.349 5.29a6.956 6.956 0 0 0-1.78-.25c-.71 0-1.101.14-1.105.142a.563.563 0 0 1-.207.04.346.346 0 0 1-.218-.07c-.145-.114-.051-.402-.048-.415.02-.072.494-1.801-.367-3.666A5.046 5.046 0 0 0 17.959 0h-5.388v11.41H24l-.019-5.332c-.491-.334-1.049-.63-1.632-.788z" fill="#B1D34A"></path><path d="M20.567 4.316c.62 0 1.281.094 1.968.277.37.1.726.243 1.062.415l-2.128-2.126-2.263-2.26c.024.049.051.097.073.148a6.47 6.47 0 0 1 .521 3.6c.24-.035.499-.054.767-.054z" fill="#B1D34A"></path><path d="M16.765 12.586H15.21v11.412h1.555V12.586zM19.061 12.586h-1.555v11.412h1.555V12.586zM21.361 12.586h-1.554v11.412h1.555V12.586zM23.998 12.586h-1.895v11.412h1.895V12.586zM14.467 12.586h-1.896v11.412h1.896V12.586z" fill="#268E80"></path><path d="M9.117 5.867C8.313 7.51 7.484 9.208 5.72 9.208c-1.764 0-2.593-1.698-3.396-3.341C1.669 4.528 1.045 3.257 0 2.992v8.418h11.429V2.996c-1.04.27-1.66 1.536-2.312 2.87z" fill="#B16531"></path><path d="M2.988 5.545c.735 1.504 1.43 2.926 2.731 2.926 1.3 0 1.996-1.422 2.731-2.926.737-1.507 1.498-3.054 2.977-3.303V0H0v2.24c1.487.242 2.251 1.795 2.988 3.305z" fill="#B16531"></path>
		</symbol>
	
		<symbol id="logos_1" viewBox="0 0 24 25">
			<path d="M10.194 14.786c.376 0 .807-.135 1.233-.367v-1.83H9.63c-.44.788-.52 1.563-.133 1.952.161.162.396.245.697.245z" fill="#FFF"></path><path d="M9.252 16.798c.674 0 1.427-.212 2.177-.59v-.969a3.13 3.13 0 0 1-1.234.28c-.496 0-.917-.158-1.218-.46-.567-.566-.595-1.507-.168-2.473H7.763c-.725 1.46-.794 2.897-.031 3.662.36.36.885.55 1.52.55z" fill="#FFF"></path><path d="M5.672 18.36c.511.51 1.263.781 2.173.781 1.092 0 2.336-.378 3.58-1.047V17.03c-.74.328-1.484.507-2.176.507-.835 0-1.54-.265-2.043-.765-.954-.953-1.002-2.543-.279-4.182H5.94c-1.267 2.325-1.456 4.582-.268 5.77z" fill="#FFF"></path><path d="M3.144 20.902c.633.633 1.534.954 2.68.954 1.665 0 3.63-.67 5.605-1.853v-1.081c-1.24.616-2.478.957-3.58.957-1.11 0-2.043-.345-2.696-.998-1.376-1.373-1.306-3.787-.046-6.291H4.069c-2.065 3.404-2.549 6.693-.925 8.312z" fill="#FFF"></path><path d="M5.822 22.593c-1.33 0-2.435-.404-3.202-1.169-1.274-1.272-1.52-3.39-.692-5.965a15.25 15.25 0 0 1 1.287-2.87H0v11.413h11.429v-3.15c-1.969 1.116-3.924 1.741-5.607 1.741zM22.349 5.29a6.956 6.956 0 0 0-1.78-.25c-.71 0-1.101.14-1.105.142a.563.563 0 0 1-.207.04.346.346 0 0 1-.218-.07c-.145-.114-.051-.402-.048-.415.02-.072.494-1.801-.367-3.666A5.046 5.046 0 0 0 17.959 0h-5.388v11.41H24l-.019-5.332c-.491-.334-1.049-.63-1.632-.788z" fill="#FFF"></path><path d="M20.567 4.316c.62 0 1.281.094 1.968.277.37.1.726.243 1.062.415l-2.128-2.126-2.263-2.26c.024.049.051.097.073.148a6.47 6.47 0 0 1 .521 3.6c.24-.035.499-.054.767-.054zM16.765 12.586H15.21v11.412h1.555V12.586zM19.061 12.586h-1.555v11.412h1.555V12.586zM21.361 12.586h-1.554v11.412h1.555V12.586zM23.998 12.586h-1.895v11.412h1.895V12.586zM14.467 12.586h-1.896v11.412h1.896V12.586zM9.117 5.867C8.313 7.51 7.484 9.208 5.72 9.208c-1.764 0-2.593-1.698-3.396-3.341C1.669 4.528 1.045 3.257 0 2.992v8.418h11.429V2.996c-1.04.27-1.66 1.536-2.312 2.87z" fill="#FFF"></path><path d="M2.988 5.545c.735 1.504 1.43 2.926 2.731 2.926 1.3 0 1.996-1.422 2.731-2.926.737-1.507 1.498-3.054 2.977-3.303V0H0v2.24c1.487.242 2.251 1.795 2.988 3.305z" fill="#FFF"></path>
		</symbol>
	
		<symbol id="logout" viewBox="0 0 24 24">
			<path d="M19 21h-9a2 2 0 0 1-2-2v-4h2v4h9V5h-9v4H8V5a2 2 0 0 1 2-2h9a2 2 0 0 1 2 2v14a2 2 0 0 1-2 2zm-7-5v-3H3v-2h9V8l5 4-5 4z" fill="#FF2689"></path>
		</symbol>
	
		<symbol id="map-market" viewBox="0 0 42 55">
			<path fill-rule="evenodd" clip-rule="evenodd" d="M36.865 33.273a20.233 20.233 0 0 0 4.254-12.437c0-11.263-9.183-20.395-20.51-20.395C9.28.441.097 9.573.097 20.837c0 4.681 1.586 8.994 4.253 12.436H4.35l16.509 20.893 16.008-20.893z" fill="#F08322"></path><ellipse cx="20.609" cy="21.189" rx="16.328" ry="16.236" fill="#fff"></ellipse>
		</symbol>
	
		<symbol id="menu" viewBox="0 0 16 16">
			<path d="M7.111 3.556h5.333v1.777H7.111V3.556zm0 3.555h5.333V8.89H7.111V7.11zm0 3.556h5.333v1.777H7.111v-1.777zM3.556 3.556h1.777v1.777H3.556V3.556zm0 3.555h1.777V8.89H3.556V7.11zm0 3.556h1.777v1.777H3.556v-1.777zM15.2 0H.8C.356 0 0 .356 0 .8v14.4c0 .356.356.8.8.8h14.4c.356 0 .8-.444.8-.8V.8c0-.444-.444-.8-.8-.8zm-.978 14.222H1.778V1.778h12.444v12.444z" fill="#071013"></path>
		</symbol>
	
		<symbol id="next" viewBox="0 0 8 12">
			<path d="M.59 10.59L5.17 6 .59 1.41 2 0l6 6-6 6-1.41-1.41z" fill="#FF2689"></path>
		</symbol>
	
		<symbol id="play" viewBox="0 0 103 104">
			<path d="M37.362 27.89l42.326 24.106-42.326 24.106V27.89z"></path><path d="M100.785 52c0 27.51-22.089 49.78-49.298 49.78-27.21 0-49.299-22.27-49.299-49.78 0-27.511 22.09-49.781 49.299-49.781s49.298 22.27 49.298 49.78z"></path>
		</symbol>
	
		<symbol id="refresh" viewBox="0 0 24 24">
			<path d="M11.995 4a8 8 0 1 0 7.735 10h-2.081a6 6 0 1 1-5.654-8 5.92 5.92 0 0 1 4.223 1.78L13 11h7V4l-2.351 2.35A7.965 7.965 0 0 0 11.995 4z" fill="#1D1D1D"></path>
		</symbol>
	
		<symbol id="slider-arrow-next" viewBox="0 0 64 64">
			<path d="M63 32C63 14.88 49.12 1 32 1 14.88 1 1 14.88 1 32c0 17.12 13.88 31 31 31 17.12 0 31-13.88 31-31z" stroke="#222E3F" stroke-width="2"></path><path d="M17.91 31.813h27.825M35.2 21.336l10.666 10.667-10.667 10.666" stroke="#222E3F" stroke-width="2" stroke-miterlimit="10"></path>
		</symbol>
	
		<symbol id="slider-arrow-prev" viewBox="0 0 64 64">
			<path d="M1 32C1 14.88 14.88 1 32 1c17.12 0 31 13.88 31 31 0 17.12-13.88 31-31 31C14.88 63 1 49.12 1 32z" stroke="#222E3F" stroke-width="2"></path><path d="M46.09 31.813H18.265M28.8 21.336L18.135 32.003l10.667 10.666" stroke="#222E3F" stroke-width="2" stroke-miterlimit="10"></path>
		</symbol>
	
		<symbol id="vk" viewBox="0 0 29 17">
			<path d="M28.072 15.965a1.151 1.151 0 0 1-.422.256c-.159.055-.33.076-.498.061H24.13c-.745 0-1.084-.321-2.141-1.426a26.916 26.916 0 0 0-1.366-1.372c-1.145-1.043-2.008-1.649-2.643-1.797a1.048 1.048 0 0 0-.836.132.944.944 0 0 0-.291.302.876.876 0 0 0-.124.39V14.07c0 .367.036 1.236-.484 1.735a2.251 2.251 0 0 1-.754.387 2.345 2.345 0 0 1-.854.087C5.985 16.282.699 3.61.699 1.644.7 1.4.7.89 1.673.89h3.022c.7 0 .995.243 1.29 1.063C7.18 5.25 8.884 7.896 9.95 8.959a.996.996 0 0 0 .512.29c.199.045.408.03.597-.04a.97.97 0 0 0 .46-.36.874.874 0 0 0 .153-.541 23.936 23.936 0 0 1 0-2.885c.04-1.331.084-2.197-.841-3.297-.176-.202-.44-.59-.287-.894a.72.72 0 0 1 .271-.25.78.78 0 0 1 .368-.092h4.749c.19-.016.38.03.537.132.304.292.278 1.33.256 2.159v.247c-.022.915-.053 2.147 0 3.759a.878.878 0 0 0 .166.49.97.97 0 0 0 .422.328 1.044 1.044 0 0 0 1.042-.15c1.603-1.32 3.497-4.744 4.096-6.182.09-.24.261-.446.487-.587a1.32 1.32 0 0 1 .764-.196h3.022c.6 0 .762.197.81.26a.749.749 0 0 1 .036.692.537.537 0 0 0-.022.074c-.374 1.413-3.145 5.382-4.044 6.495a3.077 3.077 0 0 0-.172.276.867.867 0 0 0 .044.91c.244.304.515.587.811.846 1.044 1.013 3.484 3.391 3.925 4.685a.879.879 0 0 1-.04.837z"></path>
		</symbol>
	
		<symbol id="zoom" viewBox="0 0 59 59">
			<path d="M31.988 27.13l10.944-10.943M34.668 16.21h8.39v8.392M27.281 32.14L16.337 43.086M24.602 43.06H16.21v-8.39M31.988 27.13l10.944-10.943"></path><path d="M34.668 16.21h8.39v8.392M27.281 32.14L16.337 43.086M24.602 43.06H16.21v-8.39"></path><circle cx="29.5" cy="29.5" r="28"></circle>
		</symbol>
	
</svg>
