<svg xmlns="http://www.w3.org/2000/svg" xmlns:xlink="http://www.w3.org/1999/xlink" width="0" height="0" style="position:absolute">
	
		<symbol id="30x30-arrow" viewBox="0 0 32 32">
			<path d="M1.91 15.813h27.825M19.2 5.336l10.666 10.667-10.667 10.666" stroke="#fff" stroke-width="2" stroke-miterlimit="10"></path>
		</symbol>
	
		<symbol id="Subtract" viewBox="0 0 40 40">
			<path fill-rule="evenodd" clip-rule="evenodd" d="M2 28.205V38h10.5v2H0V28.205h2zM12.5 2H2v10.82H0V0h12.5v2zM38 12.82V2H27.5V0H40v12.82h-2zM27.5 38H38v-9.795h2V40H27.5v-2z" fill="#F08322"></path>
		</symbol>
	
		<symbol id="accept" viewBox="0 0 24 24">
			<path d="M4 11l6.5 6.5L20 6"></path>
		</symbol>
	
		<symbol id="arrow-circle-next" viewBox="0 0 48 48">
			<path d="M15.193 23.883h17.391M26 17.332l6.667 6.667L26 30.665"></path><circle cx="24" cy="24" r="23"></circle>
		</symbol>
	
		<symbol id="arrow-circle-prev" viewBox="0 0 48 48">
			<g opacity=".5"><path d="M32.807 23.883H15.416M22 17.332l-6.667 6.667L22 30.665"></path><circle r="23" transform="matrix(-1 0 0 1 24 24)"></circle></g>
		</symbol>
	
		<symbol id="arrow-down" viewBox="0 0 12 7">
			<path d="M1.913 0L.621 1.332 6.12 7l5.5-5.668L10.328 0 6.121 4.327 1.913 0z" fill="#1D1D1D"></path>
		</symbol>
	
		<symbol id="arrow-down-museum" viewBox="0 0 34 13">
			<path d="M1 1l16 10L33 1" stroke="#fff" stroke-width="2"></path>
		</symbol>
	
		<symbol id="arrow-down-no-fill" viewBox="0 0 34 13">
			<path d="M1 1l16 10L33 1"></path>
		</symbol>
	
		<symbol id="arrow-title" viewBox="0 0 21 20">
			<path d="M1.193 9.883h17.391M12 3.332l6.667 6.667L12 16.665" stroke="#F08322" stroke-width="3" stroke-miterlimit="10"></path>
		</symbol>
	
		<symbol id="blank" viewBox="0 0 24 24">
			<path d="M1 1h14.174v14.174H1z"></path><path d="M8.826 8.824H23v14.174H8.826z"></path>
		</symbol>
	
		<symbol id="btn-arrow" viewBox="0 0 26 10">
			<path d="M1 1l12 8 12-8"></path>
		</symbol>
	
		<symbol id="btn-tab-blue" viewBox="0 0 24 24">
			<path d="M23.602 15.386H24V9.943h-.174A9.773 9.773 0 0 1 14.052.174V0h-5.42c0 .134-.01.268-.01.405a14.988 14.988 0 0 0 14.98 14.98z"></path><path d="M23.826 8.158H24V0h-8.154v.174a7.992 7.992 0 0 0 7.98 7.984zM16.081 15.395A16.777 16.777 0 0 1 6.831.407c0-.136 0-.27.012-.405H0v15.393h16.081zM23.913 17.168v.016H0V24h24v-6.836l-.087.004z"></path>
		</symbol>
	
		<symbol id="btn-tab-green" viewBox="0 0 24 24">
			<path d="M23.602 15.386H24V9.943h-.174A9.773 9.773 0 0 1 14.052.174V0h-5.42c0 .134-.01.268-.01.405a14.988 14.988 0 0 0 14.98 14.98z"></path><path d="M23.826 8.158H24V0h-8.154v.174a7.992 7.992 0 0 0 7.98 7.984zM16.081 15.395A16.777 16.777 0 0 1 6.831.407c0-.136 0-.27.012-.405H0v15.393h16.081zM23.913 17.168v.016H0V24h24v-6.836l-.087.004z"></path>
		</symbol>
	
		<symbol id="btn-tab-group-white" viewBox="0 0 24 24">
			<path d="M23.602 15.386H24V9.943h-.174A9.773 9.773 0 0 1 14.052.174V0h-5.42c0 .134-.01.268-.01.405a14.988 14.988 0 0 0 14.98 14.98z" fill="#fff"></path><path d="M23.826 8.158H24V0h-8.154v.174a7.992 7.992 0 0 0 7.98 7.984zM16.081 15.395A16.777 16.777 0 0 1 6.831.407c0-.136 0-.27.012-.405H0v15.393h16.081zM23.913 17.168v.016H0V24h24v-6.836l-.087.004z" fill="#fff"></path>
		</symbol>
	
		<symbol id="btn-tab-td" viewBox="0 0 24 24">
			<path d="M9.77 16.122c.261.25.965 1.426-.927 5.995A40.32 40.32 0 0 1 7.997 24H0V0h23.996v8.003c-1.738-1.833-4.85-4.241-9.131-4.116-6.297.185-10.396 4.995-10.21 11.967a.879.879 0 0 0 1.538.556c.007-.01.877-.971 1.947-1.017.567-.011 1.098.208 1.63.73z" fill="#fff"></path><path d="M6.466 14.061c.474-5.032 3.658-8.275 8.452-8.416 5.143-.151 8.46 4.243 9.082 5.122V24H9.94c.175-.387.35-.787.52-1.193 1.685-4.068 1.85-6.667.532-7.95-.886-.853-1.868-1.264-2.925-1.22a4.012 4.012 0 0 0-1.601.424z" fill="#fff"></path>
		</symbol>
	
		<symbol id="btn-tab-td-orange" viewBox="0 0 24 24">
			<path d="M9.77 16.122c.261.25.965 1.426-.927 5.995A40.32 40.32 0 0 1 7.997 24H0V0h23.996v8.003c-1.738-1.833-4.85-4.241-9.131-4.116-6.297.185-10.396 4.995-10.21 11.967a.879.879 0 0 0 1.538.556c.007-.01.877-.971 1.947-1.017.567-.011 1.098.208 1.63.73z"></path><path d="M6.466 14.061c.474-5.032 3.658-8.275 8.452-8.416 5.143-.151 8.46 4.243 9.082 5.122V24H9.94c.175-.387.35-.787.52-1.193 1.685-4.068 1.85-6.667.532-7.95-.886-.853-1.868-1.264-2.925-1.22a4.012 4.012 0 0 0-1.601.424z"></path>
		</symbol>
	
		<symbol id="btn-tab-tertiary" viewBox="0 0 24 24">
			<path d="M23.602 15.386H24V9.943h-.174A9.773 9.773 0 0 1 14.052.174V0h-5.42c0 .134-.01.268-.01.405a14.988 14.988 0 0 0 14.98 14.98z"></path><path d="M23.826 8.158H24V0h-8.154v.174a7.992 7.992 0 0 0 7.98 7.984zM16.081 15.395A16.777 16.777 0 0 1 6.831.407c0-.136 0-.27.012-.405H0v15.393h16.081zM23.913 17.168v.016H0V24h24v-6.836l-.087.004z"></path>
		</symbol>
	
		<symbol id="childs-toggler" viewBox="0 0 10 5">
			<path opacity=".5" d="M1 1l4 3 4-3" stroke="#fff"></path>
		</symbol>
	
		<symbol id="childs-toggler-orange" viewBox="0 0 10 5">
			<path d="M1 1l4 3 4-3" stroke="#F08322"></path>
		</symbol>
	
		<symbol id="circle-btn-arrow" viewBox="0 0 32 32">
			<path d="M1.91 15.81h27.825M19.2 5.334l10.666 10.667-10.667 10.666"></path>
		</symbol>
	
		<symbol id="circle-btn-download" viewBox="0 0 32 32">
			<path d="M15.848 1.527v22.26M7.465 15.36l8.533 8.533 8.534-8.534M25.602 28.8h-19.2"></path>
		</symbol>
	
		<symbol id="company-logo" viewBox="0 0 100 100">
			<path d="M42.473 61.6c1.57 0 3.362-.561 5.14-1.53v-7.62h-7.487c-1.83 3.28-2.17 6.507-.554 8.128.67.676 1.647 1.022 2.901 1.022z" fill="#F08322"></path><path d="M38.548 69.99c2.809 0 5.948-.884 9.072-2.459v-4.034c-1.755.761-3.501 1.168-5.14 1.168-2.07 0-3.824-.66-5.078-1.92-2.362-2.36-2.478-6.278-.7-10.304h-4.355c-3.024 6.085-3.309 12.07-.131 15.26 1.5 1.497 3.685 2.289 6.332 2.289z" fill="#F08322"></path><path d="M23.634 76.49c2.131 2.128 5.263 3.258 9.056 3.258 4.547 0 9.733-1.576 14.92-4.365V70.95c-3.086 1.368-6.187 2.113-9.072 2.113-3.478 0-6.417-1.106-8.51-3.188-3.978-3.973-4.178-10.596-1.162-17.426H24.75c-5.279 9.689-6.063 19.093-1.116 24.04z" fill="#F08322"></path><path d="M13.098 87.085c2.639 2.635 6.394 3.972 11.164 3.972 6.94 0 15.127-2.789 23.36-7.721v-4.503c-5.17 2.566-10.326 3.988-14.92 3.988-4.624 0-8.51-1.437-11.233-4.157-5.732-5.724-5.44-15.781-.192-26.215h-4.325C8.35 66.632 6.335 80.34 13.099 87.085z" fill="#F08322"></path><path d="M24.26 94.13c-5.54 0-10.149-1.682-13.342-4.87-5.309-5.302-6.332-14.13-2.885-24.856 1.262-3.926 3.077-7.952 5.363-11.955H0V100h47.62V86.877c-8.203 4.649-16.35 7.254-23.36 7.254z" fill="#F08322"></path><path d="M93.12 22.043c-2.593-.691-5.094-1.045-7.418-1.045-2.954 0-4.585.584-4.6.592-.008.007-.4.169-.862.169-.354 0-.662-.1-.908-.292-.608-.477-.216-1.675-.2-1.729.084-.3 2.054-7.506-1.532-15.274A21.031 21.031 0 0 0 74.83 0H52.38v47.544h47.62l-.078-22.22c-2.046-1.39-4.37-2.628-6.801-3.281z" fill="#B1D34A"></path><path d="M85.694 17.987c2.585 0 5.34.392 8.202 1.152a22.875 22.875 0 0 1 4.424 1.73l-8.863-8.86-9.434-9.42c.1.208.216.408.308.623 2.862 6.224 2.608 12.009 2.17 14.998 1-.146 2.077-.223 3.193-.223z" fill="#B1D34A"></path><path d="M69.853 52.441h-6.478v47.552h6.478V52.44zM79.424 52.441h-6.479v47.552h6.479V52.44zM89.006 52.441h-6.479v47.552h6.479V52.44zM99.992 52.441h-7.894v47.552h7.894V52.44zM60.28 52.441H52.38v47.552h7.902V52.44z" fill="#268E80"></path><path d="M37.986 24.447c-3.347 6.846-6.801 13.922-14.15 13.922-7.347 0-10.802-7.076-14.149-13.922C6.956 18.869 4.355 13.575 0 12.469v35.073h47.62V12.484c-4.332 1.122-6.918 6.4-9.634 11.963z" fill="#B16531"></path><path d="M12.45 23.103c3.062 6.27 5.962 12.194 11.379 12.194s8.317-5.924 11.38-12.194c3.07-6.277 6.24-12.723 12.403-13.76V0H0v9.335c6.194 1.007 9.38 7.476 12.45 13.768z" fill="#B16531"></path>
		</symbol>
	
		<symbol id="company-vector1" viewBox="0 0 100 100">
			<path d="M98.341 64.107H100V41.43h-.727A40.721 40.721 0 0 1 58.552.727V0H35.968c0 .56-.047 1.118-.047 1.687a62.448 62.448 0 0 0 62.42 62.42z" fill="#B16531"></path><path d="M99.273 33.992H100V0H66.027v.727a33.302 33.302 0 0 0 33.246 33.265zM67.005 64.144a69.904 69.904 0 0 1-38.54-62.448c0-.568 0-1.127.047-1.687H0v64.135h67.005zM99.636 71.535v.065H0V100h100V71.516l-.364.02z" fill="#B16531"></path>
		</symbol>
	
		<symbol id="company-vector2" viewBox="0 0 100 100">
			<path d="M11.551 100h25.607l50.02-50.019L37.195 0H11.592l49.98 49.98L11.552 100z" fill="#B1D34A"></path><path d="M0 0l49.96 49.974L0 100V0zM50 0l49.98 49.98L49.96 100H100V0H50z" fill="#B1D34A"></path>
		</symbol>
	
		<symbol id="company-vector3" viewBox="0 0 100 100">
			<path d="M0 0v100h100V0H0zm74.603 42.063c-1.021 13.766-6.796 22.433-18.527 27.021 0 0 2.38-11.859-1.186-18.856-6.277-12.26-15.125-15.508-22.432-17.333l30.25-13.09s12.862 9.168 11.895 22.258zM31.098 18.62a35.763 35.763 0 0 1 8.84-3.567l7.645 7.134a66.363 66.363 0 0 0-11.385-.511 39.526 39.526 0 0 0-12.772 3.065 48.457 48.457 0 0 1 7.672-6.121zm21.748 66.439c-23.271 0-37.402-20.9-37.402-29.904h20.58s4.425 14.596 14.104 17.67c9.679 3.075 15.508.675 21.073-2.38a57.811 57.811 0 0 0 10.71-7.983s-5.784 22.597-29.065 22.597z" fill="#268E80"></path>
		</symbol>
	
		<symbol id="company-vector4" viewBox="0 0 100 100">
			<path d="M40.709 67.176c1.089 1.044 4.018 5.942-3.864 24.977A167.934 167.934 0 0 1 33.321 100H0V0h99.981v33.346c-7.24-7.636-20.203-17.671-38.044-17.15-26.236.77-43.318 20.812-42.54 49.863a3.663 3.663 0 0 0 6.409 2.317c.027-.046 3.652-4.047 8.11-4.24 2.362-.045 4.577.87 6.793 3.04z" fill="#F68833"></path><path d="M26.94 58.588c1.978-20.967 15.242-34.48 35.217-35.067 21.43-.631 35.252 17.68 37.843 21.343V100H41.413a168.63 168.63 0 0 0 2.17-4.972c7.021-16.947 7.708-27.778 2.215-33.125-3.689-3.553-7.78-5.265-12.184-5.082-2.323.118-4.596.72-6.673 1.767z" fill="#F68833"></path>
		</symbol>
	
		<symbol id="contacts-map-minus" viewBox="0 0 20 20">
			<path fill="#F08322" d="M9.001 0h2v19.844h-2z"></path><path fill="#F08322" d="M0 10.824V9.02h20v1.804z"></path>
		</symbol>
	
		<symbol id="contacts-map-plus" viewBox="0 0 20 2">
			<path fill="#F08322" d="M0 1.805V0h20v1.804z"></path>
		</symbol>
	
		<symbol id="enterprises-proud-3" viewBox="0 0 84 78">
			<path d="M54 51H30a6 6 0 0 1-6-6v-6a6 6 0 0 1 6-6h24a6 6 0 0 1 6 6v6a6 6 0 0 1-6 6zM30 39v6h24v-6H30z" fill="#CCE0DE"></path><path d="M78 0H6a6 6 0 0 0-6 6v12a6 6 0 0 0 6 6v48a6 6 0 0 0 6 6h60a6 6 0 0 0 6-6V24a6 6 0 0 0 6-6V6a6 6 0 0 0-6-6zm-6 72H12V24h60v48zm6-54H6V6h72v12z" fill="#CCE0DE"></path>
		</symbol>
	
		<symbol id="enterprises-proud-4" viewBox="0 0 104 88">
			<path d="M83.684 40.727c-.283 0-.556.033-.836.043L78.01 17.818h12.11v-6.545H74.03c-.48 0-.954.109-1.388.319-.433.21-.814.516-1.116.896a3.328 3.328 0 0 0-.644 2.744l1.925 9.132H39.879l-3.218-9.819h8.409V8H22.545v6.546h7.336l3.35 10.22-8.27 16.822a18.998 18.998 0 0 0-11.508.064 19.312 19.312 0 0 0-9.428 6.712A19.84 19.84 0 0 0 .026 59.339a19.897 19.897 0 0 0 2.852 11.34 19.408 19.408 0 0 0 8.69 7.674 19.01 19.01 0 0 0 11.439 1.283 19.214 19.214 0 0 0 10.125-5.564 19.758 19.758 0 0 0 5.212-10.436h8.4a6.317 6.317 0 0 0 2.789-.642 6.425 6.425 0 0 0 2.236-1.812l22.712-28.879 2.073 9.832c-4.452 1.815-8.08 5.252-10.172 9.641a19.91 19.91 0 0 0-1.147 14.094c1.355 4.68 4.377 8.676 8.475 11.21a19.003 19.003 0 0 0 13.687 2.496c4.708-.93 8.907-3.61 11.775-7.52a19.847 19.847 0 0 0 3.738-13.621c-.464-4.855-2.691-9.36-6.247-12.635a19.094 19.094 0 0 0-12.979-5.073zM19.327 73.455a12.689 12.689 0 0 1-5.245-1.125 12.882 12.882 0 0 1-4.34-3.2 13.145 13.145 0 0 1-2.681-4.72 13.302 13.302 0 0 1 1.102-10.605 13.017 13.017 0 0 1 3.592-4.046 12.767 12.767 0 0 1 4.902-2.207 12.663 12.663 0 0 1 5.36.015L16.45 58.901l.029.013a3.26 3.26 0 0 0-.37 1.45 3.285 3.285 0 0 0 .684 2.031 3.19 3.19 0 0 0 1.78 1.154 3.147 3.147 0 0 0 2.1-.227 3.222 3.222 0 0 0 1.502-1.509l.032.014 5.541-11.282a13.07 13.07 0 0 1 4.048 6.639c.65 2.582.507 5.304-.41 7.8a13.006 13.006 0 0 1-4.722 6.161 12.667 12.667 0 0 1-7.337 2.31zM38.344 57.09c-.842-5.036-3.581-9.54-7.636-12.554l5.4-10.99 7.717 23.544h-5.48zm11.128-3.47L42.026 30.91h25.308L49.472 53.622zm34.212 19.834a12.697 12.697 0 0 1-7.987-2.804 13.078 13.078 0 0 1-4.542-7.247 13.255 13.255 0 0 1 .873-8.548 12.952 12.952 0 0 1 5.91-6.143l2.6 12.338.064-.013a3.238 3.238 0 0 0 1.087 1.856 3.14 3.14 0 0 0 1.995.742 3.19 3.19 0 0 0 2.276-.958 3.301 3.301 0 0 0 .942-2.314 3.147 3.147 0 0 0-.135-.674l.064-.014-2.6-12.348a12.756 12.756 0 0 1 8.859 4.099 13.194 13.194 0 0 1 3.492 9.238 13.175 13.175 0 0 1-3.876 9.078 12.737 12.737 0 0 1-9.022 3.712z" fill="#CCE0DE"></path>
		</symbol>
	
		<symbol id="fb" viewBox="0 0 21 34">
			<path d="M19.009 21.105l1.014-6.547h-6.341v-4.249c0-1.79.886-3.537 3.726-3.537h2.882V1.198S17.675.756 15.173.756C9.952.756 6.54 3.892 6.54 9.569v4.99H.734v6.547H6.54v15.828h7.143V21.106l5.327-.001z"></path>
		</symbol>
	
		<symbol id="header-search" viewBox="0 0 22 22">
			<circle cx="10.085" cy="9.167" r="6.417"></circle><path d="M14.668 13.292l5.042 5.041"></path>
		</symbol>
	
		<symbol id="header-user" viewBox="0 0 22 22">
			<path d="M14.797 6.028c0 2.045-1.643 3.695-3.662 3.695s-3.662-1.65-3.662-3.695c0-2.044 1.643-3.695 3.662-3.695s3.662 1.65 3.662 3.695zM18.448 18.816c-.34 1.105-1.485 1.918-2.838 1.918H6.299c-1.358 0-2.497-.813-2.837-1.918-.991-3.213 1.68-6.521 5.565-6.521h3.857c3.885 0 6.556 3.308 5.565 6.52z"></path>
		</symbol>
	
		<symbol id="inst" viewBox="0 0 48 48">
			<path d="M23.467 9.602c-3.77 0-4.24.018-5.714.08-1.482.073-2.484.303-3.368.646a6.802 6.802 0 0 0-2.455 1.603 6.723 6.723 0 0 0-1.603 2.455c-.343.884-.573 1.886-.646 3.368-.067 1.476-.08 1.945-.08 5.714 0 3.77.018 4.24.08 5.715.073 1.477.303 2.483.646 3.367.35.926.896 1.764 1.603 2.456a6.724 6.724 0 0 0 2.455 1.602c.884.34 1.89.574 3.368.646 1.476.067 1.945.08 5.714.08 3.77 0 4.24-.017 5.715-.08 1.477-.072 2.483-.307 3.367-.645a6.802 6.802 0 0 0 2.456-1.603 6.688 6.688 0 0 0 1.603-2.456c.339-.884.573-1.89.645-3.367.067-1.476.08-1.945.08-5.715 0-3.77-.017-4.24-.08-5.714-.072-1.477-.307-2.489-.645-3.368a6.802 6.802 0 0 0-1.603-2.455 6.688 6.688 0 0 0-2.456-1.603c-.884-.343-1.89-.573-3.367-.646-1.476-.067-1.945-.08-5.715-.08zm0 2.496c3.702 0 4.144.018 5.607.08 1.35.064 2.085.29 2.573.48.603.223 1.15.577 1.598 1.037.46.447.813.992 1.034 1.594.19.488.416 1.223.479 2.573.062 1.463.08 1.906.08 5.607 0 3.701-.018 4.144-.085 5.607-.073 1.35-.298 2.085-.488 2.573a4.51 4.51 0 0 1-1.04 1.598c-.45.458-.996.81-1.598 1.033-.482.191-1.227.416-2.582.48-1.471.062-1.904.08-5.616.08-3.711 0-4.144-.018-5.617-.086-1.35-.072-2.094-.298-2.582-.487-.659-.263-1.11-.556-1.594-1.04-.488-.488-.798-.952-1.037-1.598-.194-.482-.416-1.227-.488-2.582-.05-1.454-.073-1.905-.073-5.599 0-3.692.023-4.144.073-5.616.072-1.354.294-2.098.488-2.582.239-.66.55-1.11 1.037-1.598.483-.483.936-.795 1.594-1.04.488-.19 1.215-.414 2.57-.482 1.47-.053 1.904-.072 5.61-.072l.057.04zm0 4.253a7.117 7.117 0 0 0-5.034 12.154 7.115 7.115 0 0 0 7.759 1.543 7.115 7.115 0 0 0 4.394-6.578 7.118 7.118 0 0 0-7.119-7.119zm0 11.742a4.62 4.62 0 0 1-4.622-4.623 4.62 4.62 0 0 1 4.622-4.622 4.62 4.62 0 0 1 4.623 4.622 4.62 4.62 0 0 1-4.623 4.623z"></path><path d="M32.438 17.669c.4-.3.626-.708.627-1.133 0-.882-.962-1.599-2.136-1.599-.28 0-.557.042-.816.122a2.28 2.28 0 0 0-.691.347 1.658 1.658 0 0 0-.462.52 1.263 1.263 0 0 0-.162.612c0 .21.055.418.162.612.107.194.264.37.462.519.198.148.433.266.691.347.259.08.536.122.816.122.566 0 1.109-.17 1.51-.47z"></path>
		</symbol>
	
		<symbol id="instagram" viewBox="0 0 29 29">
			<path d="M14.467.602c-3.77 0-4.24.018-5.714.08-1.482.073-2.484.303-3.368.646A6.802 6.802 0 0 0 2.93 2.93a6.724 6.724 0 0 0-1.603 2.455C.984 6.27.754 7.272.68 8.754c-.067 1.476-.08 1.945-.08 5.714 0 3.77.018 4.24.08 5.715.073 1.477.303 2.483.646 3.367.35.926.896 1.764 1.603 2.456a6.724 6.724 0 0 0 2.455 1.602c.884.34 1.89.573 3.368.646 1.476.067 1.945.08 5.714.08 3.77 0 4.24-.017 5.715-.08 1.477-.073 2.483-.307 3.367-.646a6.802 6.802 0 0 0 2.456-1.602 6.688 6.688 0 0 0 1.603-2.456c.338-.884.572-1.89.645-3.367.067-1.476.08-1.945.08-5.715 0-3.77-.017-4.24-.08-5.714-.073-1.477-.307-2.489-.645-3.368a6.803 6.803 0 0 0-1.603-2.455 6.688 6.688 0 0 0-2.456-1.603c-.884-.343-1.89-.573-3.367-.646-1.476-.067-1.945-.08-5.715-.08zm0 2.496c3.702 0 4.144.018 5.607.08 1.35.064 2.085.29 2.573.48.603.223 1.15.577 1.598 1.037.46.447.813.992 1.034 1.594.19.488.416 1.223.479 2.573.062 1.463.08 1.906.08 5.607 0 3.701-.018 4.144-.085 5.607-.073 1.35-.299 2.085-.488 2.573a4.51 4.51 0 0 1-1.04 1.598c-.45.458-.996.81-1.598 1.033-.482.191-1.227.416-2.582.48-1.471.062-1.904.08-5.616.08-3.711 0-4.144-.018-5.617-.085-1.35-.073-2.094-.299-2.582-.488-.658-.263-1.11-.556-1.594-1.04-.488-.488-.798-.952-1.037-1.598-.194-.482-.416-1.227-.488-2.582-.05-1.454-.073-1.905-.073-5.599 0-3.692.023-4.144.073-5.616.072-1.354.294-2.098.488-2.582.239-.66.55-1.11 1.037-1.598.483-.483.936-.795 1.594-1.04.488-.19 1.215-.414 2.57-.482 1.47-.053 1.904-.072 5.61-.072l.057.04zm0 4.253a7.116 7.116 0 0 0-6.577 9.844 7.116 7.116 0 0 0 9.302 3.853 7.115 7.115 0 0 0 4.394-6.578 7.118 7.118 0 0 0-7.119-7.119zm0 11.742a4.62 4.62 0 0 1-4.622-4.623 4.62 4.62 0 0 1 4.622-4.623 4.62 4.62 0 0 1 4.623 4.623 4.62 4.62 0 0 1-4.623 4.623z"></path>
		</symbol>
	
		<symbol id="interprises-proud-1" viewBox="0 0 104 88">
			<path d="M101.711 43.151L90.89 17.321a3.672 3.672 0 0 0-1.328-1.636 3.55 3.55 0 0 0-1.99-.615H76.75V7.69c0-.979-.38-1.917-1.056-2.61A3.567 3.567 0 0 0 73.142 4H4.607c-.957 0-1.874.389-2.55 1.08A3.733 3.733 0 0 0 1 7.69v62.73c0 .98.38 1.918 1.057 2.61a3.567 3.567 0 0 0 2.55 1.08h7.72a14.781 14.781 0 0 0 5.16 7.856A14.22 14.22 0 0 0 26.25 85a14.22 14.22 0 0 0 8.763-3.034 14.781 14.781 0 0 0 5.16-7.855h22.653a14.781 14.781 0 0 0 5.16 7.855A14.22 14.22 0 0 0 76.75 85a14.22 14.22 0 0 0 8.763-3.034 14.781 14.781 0 0 0 5.16-7.855h7.72c.957 0 1.874-.39 2.55-1.081A3.732 3.732 0 0 0 102 70.42V44.59a3.756 3.756 0 0 0-.289-1.439zm-24.961-20.7h8.44l7.72 18.45H76.75V22.45zM26.25 77.8a7.1 7.1 0 0 1-4.008-1.244 7.347 7.347 0 0 1-2.657-3.312 7.538 7.538 0 0 1-.41-4.264 7.434 7.434 0 0 1 1.974-3.779 7.166 7.166 0 0 1 3.694-2.02 7.063 7.063 0 0 1 4.168.42 7.253 7.253 0 0 1 3.238 2.718 7.502 7.502 0 0 1 1.215 4.1c0 1.958-.76 3.835-2.113 5.22a7.133 7.133 0 0 1-5.101 2.16zm36.576-11.07H40.174a14.781 14.781 0 0 0-5.16-7.855 14.22 14.22 0 0 0-8.764-3.035 14.22 14.22 0 0 0-8.763 3.035 14.781 14.781 0 0 0-5.16 7.855H8.213V11.38h61.322v46.346a14.538 14.538 0 0 0-4.232 3.818 14.9 14.9 0 0 0-2.478 5.186zM76.75 77.8a7.1 7.1 0 0 1-4.008-1.244 7.347 7.347 0 0 1-2.657-3.312 7.538 7.538 0 0 1-.41-4.264 7.434 7.434 0 0 1 1.974-3.779 7.166 7.166 0 0 1 3.694-2.02 7.063 7.063 0 0 1 4.168.42 7.253 7.253 0 0 1 3.238 2.718 7.502 7.502 0 0 1 1.215 4.1c0 1.958-.76 3.835-2.113 5.22a7.133 7.133 0 0 1-5.101 2.16zm18.036-11.07h-4.112a14.79 14.79 0 0 0-5.117-7.965 14.223 14.223 0 0 0-8.807-3.105v-7.38h18.036v18.45z" fill="#CCE0DE"></path>
		</symbol>
	
		<symbol id="interprises-proud-2" viewBox="0 0 104 88">
			<path d="M87.571 33a14.329 14.329 0 0 0 10.198-4.301A14.808 14.808 0 0 0 102 18.333v-11H91.179a14.23 14.23 0 0 0-9.91 4.056 21.855 21.855 0 0 0-7.944-8.324A21.39 21.39 0 0 0 62.321 0H51.5v11c.007 5.833 2.29 11.424 6.346 15.549 4.058 4.124 9.559 6.444 15.297 6.451h3.607v47.667H33.464V62.333h3.607a14.329 14.329 0 0 0 10.198-4.3A14.809 14.809 0 0 0 51.5 47.666v-11H40.679a14.23 14.23 0 0 0-9.91 4.055 21.855 21.855 0 0 0-7.944-8.324 21.39 21.39 0 0 0-11.004-3.065H1v11c.007 5.833 2.289 11.425 6.346 15.55 4.058 4.123 9.559 6.444 15.297 6.45h3.607v18.334H1V88h101v-7.333H83.964V33h3.607zm-3.607-11a7.402 7.402 0 0 1 2.115-5.183 7.162 7.162 0 0 1 5.1-2.15h3.607v3.666a7.402 7.402 0 0 1-2.115 5.184 7.163 7.163 0 0 1-5.1 2.15h-3.607V22zm-50.5 29.333a7.403 7.403 0 0 1 2.115-5.183 7.163 7.163 0 0 1 5.1-2.15h3.607v3.667a7.403 7.403 0 0 1-2.115 5.183 7.163 7.163 0 0 1-5.1 2.15h-3.607v-3.667zM26.25 55h-3.607a14.329 14.329 0 0 1-10.197-4.301 14.809 14.809 0 0 1-4.232-10.366v-3.666h3.607a14.329 14.329 0 0 1 10.198 4.3 14.809 14.809 0 0 1 4.231 10.366V55zm50.5-29.333h-3.607a14.329 14.329 0 0 1-10.197-4.302A14.808 14.808 0 0 1 58.714 11V7.333h3.607a14.329 14.329 0 0 1 10.198 4.301A14.809 14.809 0 0 1 76.75 22v3.667z" fill="#CCE0DE"></path>
		</symbol>
	
		<symbol id="logos" viewBox="0 0 24 25">
			<path d="M10.194 14.786c.376 0 .807-.135 1.233-.367v-1.83H9.63c-.44.788-.52 1.563-.133 1.952.161.162.396.245.697.245z" fill="#F08322"></path><path d="M9.252 16.798c.674 0 1.427-.212 2.177-.59v-.969a3.13 3.13 0 0 1-1.234.28c-.496 0-.917-.158-1.218-.46-.567-.566-.595-1.507-.168-2.473H7.763c-.725 1.46-.794 2.897-.031 3.662.36.36.885.55 1.52.55z" fill="#F08322"></path><path d="M5.672 18.36c.511.51 1.263.781 2.173.781 1.092 0 2.336-.378 3.58-1.047V17.03c-.74.328-1.484.507-2.176.507-.835 0-1.54-.265-2.043-.765-.954-.953-1.002-2.543-.279-4.182H5.94c-1.267 2.325-1.456 4.582-.268 5.77z" fill="#F08322"></path><path d="M3.144 20.902c.633.633 1.534.954 2.68.954 1.665 0 3.63-.67 5.605-1.853v-1.081c-1.24.616-2.478.957-3.58.957-1.11 0-2.043-.345-2.696-.998-1.376-1.373-1.306-3.787-.046-6.291H4.069c-2.065 3.404-2.549 6.693-.925 8.312z" fill="#F08322"></path><path d="M5.822 22.593c-1.33 0-2.435-.404-3.202-1.169-1.274-1.272-1.52-3.39-.692-5.965a15.25 15.25 0 0 1 1.287-2.87H0v11.413h11.429v-3.15c-1.969 1.116-3.924 1.741-5.607 1.741z" fill="#F08322"></path><path d="M22.349 5.29a6.956 6.956 0 0 0-1.78-.25c-.71 0-1.101.14-1.105.142a.563.563 0 0 1-.207.04.346.346 0 0 1-.218-.07c-.145-.114-.051-.402-.048-.415.02-.072.494-1.801-.367-3.666A5.046 5.046 0 0 0 17.959 0h-5.388v11.41H24l-.019-5.332c-.491-.334-1.049-.63-1.632-.788z" fill="#B1D34A"></path><path d="M20.567 4.316c.62 0 1.281.094 1.968.277.37.1.726.243 1.062.415l-2.128-2.126-2.263-2.26c.024.049.051.097.073.148a6.47 6.47 0 0 1 .521 3.6c.24-.035.499-.054.767-.054z" fill="#B1D34A"></path><path d="M16.765 12.586H15.21v11.412h1.555V12.586zM19.061 12.586h-1.555v11.412h1.555V12.586zM21.361 12.586h-1.554v11.412h1.555V12.586zM23.998 12.586h-1.895v11.412h1.895V12.586zM14.467 12.586h-1.896v11.412h1.896V12.586z" fill="#268E80"></path><path d="M9.117 5.867C8.313 7.51 7.484 9.208 5.72 9.208c-1.764 0-2.593-1.698-3.396-3.341C1.669 4.528 1.045 3.257 0 2.992v8.418h11.429V2.996c-1.04.27-1.66 1.536-2.312 2.87z" fill="#B16531"></path><path d="M2.988 5.545c.735 1.504 1.43 2.926 2.731 2.926 1.3 0 1.996-1.422 2.731-2.926.737-1.507 1.498-3.054 2.977-3.303V0H0v2.24c1.487.242 2.251 1.795 2.988 3.305z" fill="#B16531"></path>
		</symbol>
	
		<symbol id="logos_1" viewBox="0 0 24 25">
			<path d="M10.194 14.786c.376 0 .807-.135 1.233-.367v-1.83H9.63c-.44.788-.52 1.563-.133 1.952.161.162.396.245.697.245z" fill="#FFF"></path><path d="M9.252 16.798c.674 0 1.427-.212 2.177-.59v-.969a3.13 3.13 0 0 1-1.234.28c-.496 0-.917-.158-1.218-.46-.567-.566-.595-1.507-.168-2.473H7.763c-.725 1.46-.794 2.897-.031 3.662.36.36.885.55 1.52.55z" fill="#FFF"></path><path d="M5.672 18.36c.511.51 1.263.781 2.173.781 1.092 0 2.336-.378 3.58-1.047V17.03c-.74.328-1.484.507-2.176.507-.835 0-1.54-.265-2.043-.765-.954-.953-1.002-2.543-.279-4.182H5.94c-1.267 2.325-1.456 4.582-.268 5.77z" fill="#FFF"></path><path d="M3.144 20.902c.633.633 1.534.954 2.68.954 1.665 0 3.63-.67 5.605-1.853v-1.081c-1.24.616-2.478.957-3.58.957-1.11 0-2.043-.345-2.696-.998-1.376-1.373-1.306-3.787-.046-6.291H4.069c-2.065 3.404-2.549 6.693-.925 8.312z" fill="#FFF"></path><path d="M5.822 22.593c-1.33 0-2.435-.404-3.202-1.169-1.274-1.272-1.52-3.39-.692-5.965a15.25 15.25 0 0 1 1.287-2.87H0v11.413h11.429v-3.15c-1.969 1.116-3.924 1.741-5.607 1.741zM22.349 5.29a6.956 6.956 0 0 0-1.78-.25c-.71 0-1.101.14-1.105.142a.563.563 0 0 1-.207.04.346.346 0 0 1-.218-.07c-.145-.114-.051-.402-.048-.415.02-.072.494-1.801-.367-3.666A5.046 5.046 0 0 0 17.959 0h-5.388v11.41H24l-.019-5.332c-.491-.334-1.049-.63-1.632-.788z" fill="#FFF"></path><path d="M20.567 4.316c.62 0 1.281.094 1.968.277.37.1.726.243 1.062.415l-2.128-2.126-2.263-2.26c.024.049.051.097.073.148a6.47 6.47 0 0 1 .521 3.6c.24-.035.499-.054.767-.054zM16.765 12.586H15.21v11.412h1.555V12.586zM19.061 12.586h-1.555v11.412h1.555V12.586zM21.361 12.586h-1.554v11.412h1.555V12.586zM23.998 12.586h-1.895v11.412h1.895V12.586zM14.467 12.586h-1.896v11.412h1.896V12.586zM9.117 5.867C8.313 7.51 7.484 9.208 5.72 9.208c-1.764 0-2.593-1.698-3.396-3.341C1.669 4.528 1.045 3.257 0 2.992v8.418h11.429V2.996c-1.04.27-1.66 1.536-2.312 2.87z" fill="#FFF"></path><path d="M2.988 5.545c.735 1.504 1.43 2.926 2.731 2.926 1.3 0 1.996-1.422 2.731-2.926.737-1.507 1.498-3.054 2.977-3.303V0H0v2.24c1.487.242 2.251 1.795 2.988 3.305z" fill="#FFF"></path>
		</symbol>
	
		<symbol id="logout" viewBox="0 0 24 24">
			<path d="M19 21h-9a2 2 0 0 1-2-2v-4h2v4h9V5h-9v4H8V5a2 2 0 0 1 2-2h9a2 2 0 0 1 2 2v14a2 2 0 0 1-2 2zm-7-5v-3H3v-2h9V8l5 4-5 4z" fill="#FF2689"></path>
		</symbol>
	
		<symbol id="map-market" viewBox="0 0 42 55">
			<path fill-rule="evenodd" clip-rule="evenodd" d="M36.865 33.273a20.233 20.233 0 0 0 4.254-12.437c0-11.263-9.183-20.395-20.51-20.395C9.28.441.097 9.573.097 20.837c0 4.681 1.586 8.994 4.253 12.436H4.35l16.509 20.893 16.008-20.893z" fill="#F08322"></path><ellipse cx="20.609" cy="21.189" rx="16.328" ry="16.236" fill="#fff"></ellipse>
		</symbol>
	
		<symbol id="menu" viewBox="0 0 16 16">
			<path d="M7.111 3.556h5.333v1.777H7.111V3.556zm0 3.555h5.333V8.89H7.111V7.11zm0 3.556h5.333v1.777H7.111v-1.777zM3.556 3.556h1.777v1.777H3.556V3.556zm0 3.555h1.777V8.89H3.556V7.11zm0 3.556h1.777v1.777H3.556v-1.777zM15.2 0H.8C.356 0 0 .356 0 .8v14.4c0 .356.356.8.8.8h14.4c.356 0 .8-.444.8-.8V.8c0-.444-.444-.8-.8-.8zm-.978 14.222H1.778V1.778h12.444v12.444z" fill="#071013"></path>
		</symbol>
	
		<symbol id="next" viewBox="0 0 8 12">
			<path d="M.59 10.59L5.17 6 .59 1.41 2 0l6 6-6 6-1.41-1.41z" fill="#FF2689"></path>
		</symbol>
	
		<symbol id="play" viewBox="0 0 103 104">
			<path d="M37.362 27.89l42.326 24.106-42.326 24.106V27.89z"></path><path d="M100.785 52c0 27.51-22.089 49.78-49.298 49.78-27.21 0-49.299-22.27-49.299-49.78 0-27.511 22.09-49.781 49.299-49.781s49.298 22.27 49.298 49.78z"></path>
		</symbol>
	
		<symbol id="preloader" viewBox="0 0 81 80">
			<path d="M33.978 49.279c1.256 0 2.69-.45 4.112-1.224v-6.097h-5.989c-1.465 2.625-1.736 5.206-.443 6.503.535.541 1.317.818 2.32.818z" fill="#F08322"></path><path d="M30.838 55.988c2.247 0 4.758-.707 7.257-1.967v-3.227c-1.403.609-2.8.934-4.112.934-1.655 0-3.059-.528-4.062-1.536-1.89-1.887-1.982-5.022-.56-8.243h-3.484c-2.42 4.868-2.647 9.656-.105 12.207 1.2 1.199 2.949 1.832 5.066 1.832z" fill="#F08322"></path><path d="M18.907 61.19c1.705 1.703 4.21 2.607 7.244 2.607 3.638 0 7.787-1.26 11.936-3.491v-3.547c-2.469 1.094-4.95 1.69-7.257 1.69-2.783 0-5.134-.885-6.808-2.55-3.183-3.178-3.343-8.477-.93-13.94H19.8c-4.223 7.75-4.85 15.273-.892 19.232z" fill="#F08322"></path><path d="M10.478 69.667c2.11 2.108 5.115 3.178 8.931 3.178 5.552 0 12.102-2.232 18.688-6.178v-3.602c-4.137 2.053-8.26 3.19-11.936 3.19-3.699 0-6.807-1.149-8.986-3.325-4.586-4.579-4.352-12.625-.154-20.972h-3.46C6.68 53.305 5.067 64.27 10.478 69.667z" fill="#F08322"></path><path d="M19.408 75.303c-4.432 0-8.119-1.346-10.673-3.897-4.248-4.24-5.066-11.303-2.309-19.884 1.01-3.14 2.462-6.362 4.29-9.564H0V80h38.096V69.501c-6.562 3.719-13.08 5.802-18.688 5.802z" fill="#F08322"></path><path d="M74.5 17.634c-2.075-.553-4.076-.835-5.935-.835-2.363 0-3.668.467-3.68.473-.007.006-.32.135-.69.135-.283 0-.53-.08-.726-.233-.487-.381-.173-1.34-.16-1.383.067-.24 1.643-6.006-1.225-12.22A16.822 16.822 0 0 0 59.868 0H41.906v38.035h38.096l-.062-17.776c-1.637-1.112-3.496-2.102-5.44-2.625z" fill="#B1D34A"></path><path d="M68.559 14.39c2.068 0 4.272.313 6.562.921 1.23.332 2.419.811 3.539 1.383l-7.091-7.087-7.547-7.536c.08.166.173.326.247.498 2.29 4.979 2.086 9.607 1.735 11.998.8-.116 1.662-.178 2.555-.178z" fill="#B1D34A"></path><path d="M55.886 41.95h-5.183v38.04h5.183V41.95zM63.542 41.95H58.36v38.04h5.183V41.95zM71.21 41.95h-5.183v38.04h5.183V41.95zM79.999 41.95h-6.315v38.04h6.315V41.95zM48.228 41.95h-6.322v38.04h6.322V41.95z" fill="#268E80"></path><path d="M30.39 19.56c-2.678 5.477-5.442 11.138-11.32 11.138-5.879 0-8.643-5.661-11.32-11.138C5.564 15.098 3.484 10.863 0 9.978v28.059h38.096V9.99c-3.466.897-5.534 5.12-7.707 9.57z" fill="#B16531"></path><path d="M9.96 18.483c2.45 5.015 4.77 9.754 9.103 9.754 4.334 0 6.654-4.739 9.104-9.754C30.623 13.46 33.16 8.304 38.09 7.474V0H0v7.468c4.955.805 7.503 5.98 9.96 11.015z" fill="#B16531"></path>
		</symbol>
	
		<symbol id="pzbm" viewBox="0 0 24 24">
			<path d="M2.772 24h6.146l12.005-12.005L8.926 0H2.782l11.995 11.995L2.772 24z"></path><path d="M0 0l11.99 11.994L0 24V0zM12 0l11.995 11.995L11.99 24H24V0H12z"></path>
		</symbol>
	
		<symbol id="refresh" viewBox="0 0 24 24">
			<path d="M11.995 4a8 8 0 1 0 7.735 10h-2.081a6 6 0 1 1-5.654-8 5.92 5.92 0 0 1 4.223 1.78L13 11h7V4l-2.351 2.35A7.965 7.965 0 0 0 11.995 4z" fill="#1D1D1D"></path>
		</symbol>
	
		<symbol id="skbk" viewBox="0 0 24 24">
			<path d="M23.602 15.386H24V9.943h-.174A9.773 9.773 0 0 1 14.052.174V0h-5.42c0 .134-.01.268-.01.405a14.988 14.988 0 0 0 14.98 14.98z"></path><path d="M23.826 8.158H24V0h-8.154v.174a7.992 7.992 0 0 0 7.98 7.984zM16.081 15.395A16.777 16.777 0 0 1 6.831.407c0-.136 0-.27.012-.405H0v15.393h16.081zM23.913 17.168v.016H0V24h24v-6.836l-.087.004z"></path>
		</symbol>
	
		<symbol id="slider-arrow-left_orange" viewBox="0 0 64 64">
			<path d="M1 32C1 14.88 14.88 1 32 1c17.12 0 31 13.88 31 31 0 17.12-13.88 31-31 31C14.88 63 1 49.12 1 32z" stroke="#F08322" stroke-width="2"></path><path d="M46.09 31.813H18.265M28.8 21.336L18.135 32.003l10.667 10.666" stroke="#F08322" stroke-width="2" stroke-miterlimit="10"></path>
		</symbol>
	
		<symbol id="slider-arrow-next" viewBox="0 0 64 64">
			<path d="M63 32C63 14.88 49.12 1 32 1 14.88 1 1 14.88 1 32c0 17.12 13.88 31 31 31 17.12 0 31-13.88 31-31z" stroke="#222E3F" stroke-width="2"></path><path d="M17.91 31.813h27.825M35.2 21.336l10.666 10.667-10.667 10.666" stroke="#222E3F" stroke-width="2" stroke-miterlimit="10"></path>
		</symbol>
	
		<symbol id="slider-arrow-prev" viewBox="0 0 64 64">
			<path d="M1 32C1 14.88 14.88 1 32 1c17.12 0 31 13.88 31 31 0 17.12-13.88 31-31 31C14.88 63 1 49.12 1 32z" stroke="#222E3F" stroke-width="2"></path><path d="M46.09 31.813H18.265M28.8 21.336L18.135 32.003l10.667 10.666" stroke="#222E3F" stroke-width="2" stroke-miterlimit="10"></path>
		</symbol>
	
		<symbol id="slider-arrow-right_orange" viewBox="0 0 64 64">
			<path d="M63 32C63 14.88 49.12 1 32 1 14.88 1 1 14.88 1 32c0 17.12 13.88 31 31 31 17.12 0 31-13.88 31-31z" stroke="#F08322" stroke-width="2"></path><path d="M17.91 31.813h27.825M35.2 21.336l10.666 10.667-10.667 10.666" stroke="#F08322" stroke-width="2" stroke-miterlimit="10"></path>
		</symbol>
	
		<symbol id="td-format" viewBox="0 0 24 24">
			<path d="M9.77 16.122c.261.25.965 1.426-.927 5.995A40.32 40.32 0 0 1 7.997 24H0V0h23.996v8.003c-1.738-1.833-4.85-4.241-9.131-4.116-6.297.185-10.396 4.995-10.21 11.967a.879.879 0 0 0 1.538.556c.007-.01.877-.971 1.947-1.017.567-.011 1.098.208 1.63.73z"></path><path d="M6.466 14.061c.474-5.032 3.658-8.275 8.452-8.416 5.143-.151 8.46 4.243 9.082 5.122V24H9.94c.175-.387.35-.787.52-1.193 1.685-4.068 1.85-6.667.532-7.95-.886-.853-1.868-1.264-2.925-1.22a4.012 4.012 0 0 0-1.601.424z"></path>
		</symbol>
	
		<symbol id="tk-nostandart" viewBox="0 0 27 22">
			<path d="M0 3h27M0 11h27M0 19h27" stroke="#fff" stroke-width="2"></path><circle cx="20" cy="3" r="2.5" fill="#222E3F" stroke="#fff"></circle><circle cx="6" cy="11" r="2.5" fill="#222E3F" stroke="#fff"></circle><circle cx="13" cy="19" r="2.5" fill="#222E3F" stroke="#fff"></circle>
		</symbol>
	
		<symbol id="vk" viewBox="0 0 29 17">
			<path d="M28.072 15.965a1.151 1.151 0 0 1-.422.256c-.159.055-.33.076-.498.061H24.13c-.745 0-1.084-.321-2.141-1.426a26.916 26.916 0 0 0-1.366-1.372c-1.145-1.043-2.008-1.649-2.643-1.797a1.048 1.048 0 0 0-.836.132.944.944 0 0 0-.291.302.876.876 0 0 0-.124.39V14.07c0 .367.036 1.236-.484 1.735a2.251 2.251 0 0 1-.754.387 2.345 2.345 0 0 1-.854.087C5.985 16.282.699 3.61.699 1.644.7 1.4.7.89 1.673.89h3.022c.7 0 .995.243 1.29 1.063C7.18 5.25 8.884 7.896 9.95 8.959a.996.996 0 0 0 .512.29c.199.045.408.03.597-.04a.97.97 0 0 0 .46-.36.874.874 0 0 0 .153-.541 23.936 23.936 0 0 1 0-2.885c.04-1.331.084-2.197-.841-3.297-.176-.202-.44-.59-.287-.894a.72.72 0 0 1 .271-.25.78.78 0 0 1 .368-.092h4.749c.19-.016.38.03.537.132.304.292.278 1.33.256 2.159v.247c-.022.915-.053 2.147 0 3.759a.878.878 0 0 0 .166.49.97.97 0 0 0 .422.328 1.044 1.044 0 0 0 1.042-.15c1.603-1.32 3.497-4.744 4.096-6.182.09-.24.261-.446.487-.587a1.32 1.32 0 0 1 .764-.196h3.022c.6 0 .762.197.81.26a.749.749 0 0 1 .036.692.537.537 0 0 0-.022.074c-.374 1.413-3.145 5.382-4.044 6.495a3.077 3.077 0 0 0-.172.276.867.867 0 0 0 .044.91c.244.304.515.587.811.846 1.044 1.013 3.484 3.391 3.925 4.685a.879.879 0 0 1-.04.837z"></path>
		</symbol>
	
		<symbol id="zoom" viewBox="0 0 59 59">
			<path d="M31.988 27.13l10.944-10.943M34.668 16.21h8.39v8.392M27.281 32.14L16.337 43.086M24.602 43.06H16.21v-8.39M31.988 27.13l10.944-10.943"></path><path d="M34.668 16.21h8.39v8.392M27.281 32.14L16.337 43.086M24.602 43.06H16.21v-8.39"></path><circle cx="29.5" cy="29.5" r="28"></circle>
		</symbol>
	
</svg>
