<svg xmlns="http://www.w3.org/2000/svg" xmlns:xlink="http://www.w3.org/1999/xlink" width="0" height="0" style="position:absolute">
	
		<symbol id="30x30-arrow" viewBox="0 0 32 32">
			<path d="M1.91 15.813h27.825M19.2 5.336l10.666 10.667-10.667 10.666" stroke="#fff" stroke-width="2" stroke-miterlimit="10"></path>
		</symbol>
	
		<symbol id="arrow-circle-next" viewBox="0 0 48 48">
			<path d="M15.193 23.883h17.391M26 17.332l6.667 6.667L26 30.665"></path><circle cx="24" cy="24" r="23"></circle>
		</symbol>
	
		<symbol id="arrow-circle-prev" viewBox="0 0 48 48">
			<g opacity=".5"><path d="M32.807 23.883H15.416M22 17.332l-6.667 6.667L22 30.665"></path><circle r="23" transform="matrix(-1 0 0 1 24 24)"></circle></g>
		</symbol>
	
		<symbol id="arrow-down" viewBox="0 0 12 7">
			<path d="M1.913 0L.621 1.332 6.12 7l5.5-5.668L10.328 0 6.121 4.327 1.913 0z" fill="#1D1D1D"></path>
		</symbol>
	
		<symbol id="arrow-down(museum)" viewBox="0 0 34 13">
			<path d="M1 1l16 10L33 1" stroke="#fff" stroke-width="2"></path>
		</symbol>
	
		<symbol id="blank" viewBox="0 0 24 24">
			<path d="M1 1h14.174v14.174H1z"></path><path d="M8.826 8.824H23v14.174H8.826z"></path>
		</symbol>
	
		<symbol id="btn-arrow" viewBox="0 0 26 10">
			<path d="M1 1l12 8 12-8"></path>
		</symbol>
	
		<symbol id="childs-toggler" viewBox="0 0 10 5">
			<path opacity=".5" d="M1 1l4 3 4-3" stroke="#fff"></path>
		</symbol>
	
		<symbol id="circle-btn-arrow" viewBox="0 0 32 32">
			<path d="M1.91 15.81h27.825M19.2 5.334l10.666 10.667-10.667 10.666"></path>
		</symbol>
	
		<symbol id="company-logo" viewBox="0 0 100 100">
			<path d="M42.473 61.6c1.57 0 3.362-.561 5.14-1.53v-7.62h-7.487c-1.83 3.28-2.17 6.507-.554 8.128.67.676 1.647 1.022 2.901 1.022z" fill="#F08322"></path><path d="M38.548 69.99c2.809 0 5.948-.884 9.072-2.459v-4.034c-1.755.761-3.501 1.168-5.14 1.168-2.07 0-3.824-.66-5.078-1.92-2.362-2.36-2.478-6.278-.7-10.304h-4.355c-3.024 6.085-3.309 12.07-.131 15.26 1.5 1.497 3.685 2.289 6.332 2.289z" fill="#F08322"></path><path d="M23.634 76.49c2.131 2.128 5.263 3.258 9.056 3.258 4.547 0 9.733-1.576 14.92-4.365V70.95c-3.086 1.368-6.187 2.113-9.072 2.113-3.478 0-6.417-1.106-8.51-3.188-3.978-3.973-4.178-10.596-1.162-17.426H24.75c-5.279 9.689-6.063 19.093-1.116 24.04z" fill="#F08322"></path><path d="M13.098 87.085c2.639 2.635 6.394 3.972 11.164 3.972 6.94 0 15.127-2.789 23.36-7.721v-4.503c-5.17 2.566-10.326 3.988-14.92 3.988-4.624 0-8.51-1.437-11.233-4.157-5.732-5.724-5.44-15.781-.192-26.215h-4.325C8.35 66.632 6.335 80.34 13.099 87.085z" fill="#F08322"></path><path d="M24.26 94.13c-5.54 0-10.149-1.682-13.342-4.87-5.309-5.302-6.332-14.13-2.885-24.856 1.262-3.926 3.077-7.952 5.363-11.955H0V100h47.62V86.877c-8.203 4.649-16.35 7.254-23.36 7.254z" fill="#F08322"></path><path d="M93.12 22.043c-2.593-.691-5.094-1.045-7.418-1.045-2.954 0-4.585.584-4.6.592-.008.007-.4.169-.862.169-.354 0-.662-.1-.908-.292-.608-.477-.216-1.675-.2-1.729.084-.3 2.054-7.506-1.532-15.274A21.031 21.031 0 0 0 74.83 0H52.38v47.544h47.62l-.078-22.22c-2.046-1.39-4.37-2.628-6.801-3.281z" fill="#B1D34A"></path><path d="M85.694 17.987c2.585 0 5.34.392 8.202 1.152a22.875 22.875 0 0 1 4.424 1.73l-8.863-8.86-9.434-9.42c.1.208.216.408.308.623 2.862 6.224 2.608 12.009 2.17 14.998 1-.146 2.077-.223 3.193-.223z" fill="#B1D34A"></path><path d="M69.853 52.441h-6.478v47.552h6.478V52.44zM79.424 52.441h-6.479v47.552h6.479V52.44zM89.006 52.441h-6.479v47.552h6.479V52.44zM99.992 52.441h-7.894v47.552h7.894V52.44zM60.28 52.441H52.38v47.552h7.902V52.44z" fill="#268E80"></path><path d="M37.986 24.447c-3.347 6.846-6.801 13.922-14.15 13.922-7.347 0-10.802-7.076-14.149-13.922C6.956 18.869 4.355 13.575 0 12.469v35.073h47.62V12.484c-4.332 1.122-6.918 6.4-9.634 11.963z" fill="#B16531"></path><path d="M12.45 23.103c3.062 6.27 5.962 12.194 11.379 12.194s8.317-5.924 11.38-12.194c3.07-6.277 6.24-12.723 12.403-13.76V0H0v9.335c6.194 1.007 9.38 7.476 12.45 13.768z" fill="#B16531"></path>
		</symbol>
	
		<symbol id="fb" viewBox="0 0 21 34">
			<path d="M19.009 21.105l1.014-6.547h-6.341v-4.249c0-1.79.886-3.537 3.726-3.537h2.882V1.198S17.675.756 15.173.756C9.952.756 6.54 3.892 6.54 9.569v4.99H.734v6.547H6.54v15.828h7.143V21.106l5.327-.001z"></path>
		</symbol>
	
		<symbol id="header-search" viewBox="0 0 22 22">
			<circle cx="10.085" cy="9.167" r="6.417"></circle><path d="M14.668 13.292l5.042 5.041"></path>
		</symbol>
	
		<symbol id="header-user" viewBox="0 0 22 22">
			<path d="M14.797 6.028c0 2.045-1.643 3.695-3.662 3.695s-3.662-1.65-3.662-3.695c0-2.044 1.643-3.695 3.662-3.695s3.662 1.65 3.662 3.695zM18.448 18.816c-.34 1.105-1.485 1.918-2.838 1.918H6.299c-1.358 0-2.497-.813-2.837-1.918-.991-3.213 1.68-6.521 5.565-6.521h3.857c3.885 0 6.556 3.308 5.565 6.52z"></path>
		</symbol>
	
		<symbol id="inst" viewBox="0 0 48 48">
			<path d="M23.467 9.602c-3.77 0-4.24.018-5.714.08-1.482.073-2.484.303-3.368.646a6.802 6.802 0 0 0-2.455 1.603 6.723 6.723 0 0 0-1.603 2.455c-.343.884-.573 1.886-.646 3.368-.067 1.476-.08 1.945-.08 5.714 0 3.77.018 4.24.08 5.715.073 1.477.303 2.483.646 3.367.35.926.896 1.764 1.603 2.456a6.724 6.724 0 0 0 2.455 1.602c.884.34 1.89.574 3.368.646 1.476.067 1.945.08 5.714.08 3.77 0 4.24-.017 5.715-.08 1.477-.072 2.483-.307 3.367-.645a6.802 6.802 0 0 0 2.456-1.603 6.688 6.688 0 0 0 1.603-2.456c.339-.884.573-1.89.645-3.367.067-1.476.08-1.945.08-5.715 0-3.77-.017-4.24-.08-5.714-.072-1.477-.307-2.489-.645-3.368a6.802 6.802 0 0 0-1.603-2.455 6.688 6.688 0 0 0-2.456-1.603c-.884-.343-1.89-.573-3.367-.646-1.476-.067-1.945-.08-5.715-.08zm0 2.496c3.702 0 4.144.018 5.607.08 1.35.064 2.085.29 2.573.48.603.223 1.15.577 1.598 1.037.46.447.813.992 1.034 1.594.19.488.416 1.223.479 2.573.062 1.463.08 1.906.08 5.607 0 3.701-.018 4.144-.085 5.607-.073 1.35-.298 2.085-.488 2.573a4.51 4.51 0 0 1-1.04 1.598c-.45.458-.996.81-1.598 1.033-.482.191-1.227.416-2.582.48-1.471.062-1.904.08-5.616.08-3.711 0-4.144-.018-5.617-.086-1.35-.072-2.094-.298-2.582-.487-.659-.263-1.11-.556-1.594-1.04-.488-.488-.798-.952-1.037-1.598-.194-.482-.416-1.227-.488-2.582-.05-1.454-.073-1.905-.073-5.599 0-3.692.023-4.144.073-5.616.072-1.354.294-2.098.488-2.582.239-.66.55-1.11 1.037-1.598.483-.483.936-.795 1.594-1.04.488-.19 1.215-.414 2.57-.482 1.47-.053 1.904-.072 5.61-.072l.057.04zm0 4.253a7.117 7.117 0 0 0-5.034 12.154 7.115 7.115 0 0 0 7.759 1.543 7.115 7.115 0 0 0 4.394-6.578 7.118 7.118 0 0 0-7.119-7.119zm0 11.742a4.62 4.62 0 0 1-4.622-4.623 4.62 4.62 0 0 1 4.622-4.622 4.62 4.62 0 0 1 4.623 4.622 4.62 4.62 0 0 1-4.623 4.623z"></path><path d="M32.438 17.669c.4-.3.626-.708.627-1.133 0-.882-.962-1.599-2.136-1.599-.28 0-.557.042-.816.122a2.28 2.28 0 0 0-.691.347 1.658 1.658 0 0 0-.462.52 1.263 1.263 0 0 0-.162.612c0 .21.055.418.162.612.107.194.264.37.462.519.198.148.433.266.691.347.259.08.536.122.816.122.566 0 1.109-.17 1.51-.47z"></path>
		</symbol>
	
		<symbol id="logout" viewBox="0 0 24 24">
			<path d="M19 21h-9a2 2 0 0 1-2-2v-4h2v4h9V5h-9v4H8V5a2 2 0 0 1 2-2h9a2 2 0 0 1 2 2v14a2 2 0 0 1-2 2zm-7-5v-3H3v-2h9V8l5 4-5 4z" fill="#FF2689"></path>
		</symbol>
	
		<symbol id="menu" viewBox="0 0 16 16">
			<path d="M7.111 3.556h5.333v1.777H7.111V3.556zm0 3.555h5.333V8.89H7.111V7.11zm0 3.556h5.333v1.777H7.111v-1.777zM3.556 3.556h1.777v1.777H3.556V3.556zm0 3.555h1.777V8.89H3.556V7.11zm0 3.556h1.777v1.777H3.556v-1.777zM15.2 0H.8C.356 0 0 .356 0 .8v14.4c0 .356.356.8.8.8h14.4c.356 0 .8-.444.8-.8V.8c0-.444-.444-.8-.8-.8zm-.978 14.222H1.778V1.778h12.444v12.444z" fill="#071013"></path>
		</symbol>
	
		<symbol id="next" viewBox="0 0 8 12">
			<path d="M.59 10.59L5.17 6 .59 1.41 2 0l6 6-6 6-1.41-1.41z" fill="#FF2689"></path>
		</symbol>
	
		<symbol id="play" viewBox="0 0 103 104">
			<path d="M37.362 27.89l42.326 24.106-42.326 24.106V27.89z"></path><path d="M100.785 52c0 27.51-22.089 49.78-49.298 49.78-27.21 0-49.299-22.27-49.299-49.78 0-27.511 22.09-49.781 49.299-49.781s49.298 22.27 49.298 49.78z"></path>
		</symbol>
	
		<symbol id="refresh" viewBox="0 0 24 24">
			<path d="M11.995 4a8 8 0 1 0 7.735 10h-2.081a6 6 0 1 1-5.654-8 5.92 5.92 0 0 1 4.223 1.78L13 11h7V4l-2.351 2.35A7.965 7.965 0 0 0 11.995 4z" fill="#1D1D1D"></path>
		</symbol>
	
		<symbol id="slider-arrow-left_orange" viewBox="0 0 64 64">
			<path d="M1 32C1 14.88 14.88 1 32 1c17.12 0 31 13.88 31 31 0 17.12-13.88 31-31 31C14.88 63 1 49.12 1 32z" stroke="#F08322" stroke-width="2"></path><path d="M46.09 31.813H18.265M28.8 21.336L18.135 32.003l10.667 10.666" stroke="#F08322" stroke-width="2" stroke-miterlimit="10"></path>
		</symbol>
	
		<symbol id="slider-arrow-next" viewBox="0 0 64 64">
			<path d="M63 32C63 14.88 49.12 1 32 1 14.88 1 1 14.88 1 32c0 17.12 13.88 31 31 31 17.12 0 31-13.88 31-31z" stroke="#222E3F" stroke-width="2"></path><path d="M17.91 31.813h27.825M35.2 21.336l10.666 10.667-10.667 10.666" stroke="#222E3F" stroke-width="2" stroke-miterlimit="10"></path>
		</symbol>
	
		<symbol id="slider-arrow-prev" viewBox="0 0 64 64">
			<path d="M1 32C1 14.88 14.88 1 32 1c17.12 0 31 13.88 31 31 0 17.12-13.88 31-31 31C14.88 63 1 49.12 1 32z" stroke="#222E3F" stroke-width="2"></path><path d="M46.09 31.813H18.265M28.8 21.336L18.135 32.003l10.667 10.666" stroke="#222E3F" stroke-width="2" stroke-miterlimit="10"></path>
		</symbol>
	
		<symbol id="slider-arrow-right_orange" viewBox="0 0 64 64">
			<path d="M63 32C63 14.88 49.12 1 32 1 14.88 1 1 14.88 1 32c0 17.12 13.88 31 31 31 17.12 0 31-13.88 31-31z" stroke="#F08322" stroke-width="2"></path><path d="M17.91 31.813h27.825M35.2 21.336l10.666 10.667-10.667 10.666" stroke="#F08322" stroke-width="2" stroke-miterlimit="10"></path>
		</symbol>
	
		<symbol id="vk" viewBox="0 0 29 17">
			<path d="M28.072 15.965a1.151 1.151 0 0 1-.422.256c-.159.055-.33.076-.498.061H24.13c-.745 0-1.084-.321-2.141-1.426a26.916 26.916 0 0 0-1.366-1.372c-1.145-1.043-2.008-1.649-2.643-1.797a1.048 1.048 0 0 0-.836.132.944.944 0 0 0-.291.302.876.876 0 0 0-.124.39V14.07c0 .367.036 1.236-.484 1.735a2.251 2.251 0 0 1-.754.387 2.345 2.345 0 0 1-.854.087C5.985 16.282.699 3.61.699 1.644.7 1.4.7.89 1.673.89h3.022c.7 0 .995.243 1.29 1.063C7.18 5.25 8.884 7.896 9.95 8.959a.996.996 0 0 0 .512.29c.199.045.408.03.597-.04a.97.97 0 0 0 .46-.36.874.874 0 0 0 .153-.541 23.936 23.936 0 0 1 0-2.885c.04-1.331.084-2.197-.841-3.297-.176-.202-.44-.59-.287-.894a.72.72 0 0 1 .271-.25.78.78 0 0 1 .368-.092h4.749c.19-.016.38.03.537.132.304.292.278 1.33.256 2.159v.247c-.022.915-.053 2.147 0 3.759a.878.878 0 0 0 .166.49.97.97 0 0 0 .422.328 1.044 1.044 0 0 0 1.042-.15c1.603-1.32 3.497-4.744 4.096-6.182.09-.24.261-.446.487-.587a1.32 1.32 0 0 1 .764-.196h3.022c.6 0 .762.197.81.26a.749.749 0 0 1 .036.692.537.537 0 0 0-.022.074c-.374 1.413-3.145 5.382-4.044 6.495a3.077 3.077 0 0 0-.172.276.867.867 0 0 0 .044.91c.244.304.515.587.811.846 1.044 1.013 3.484 3.391 3.925 4.685a.879.879 0 0 1-.04.837z"></path>
		</symbol>
	
		<symbol id="zoom" viewBox="0 0 59 59">
			<path d="M31.988 27.13l10.944-10.943M34.668 16.21h8.39v8.392M27.281 32.14L16.337 43.086M24.602 43.06H16.21v-8.39M31.988 27.13l10.944-10.943"></path><path d="M34.668 16.21h8.39v8.392M27.281 32.14L16.337 43.086M24.602 43.06H16.21v-8.39"></path><circle cx="29.5" cy="29.5" r="28"></circle>
		</symbol>
	
</svg>
