<svg width="24" height="24" viewBox="0 0 24 24" fill="none" xmlns="http://www.w3.org/2000/svg">
<path d="M23.6018 15.3856C23.736 15.3856 23.868 15.3856 24 15.3856V9.94314H23.8255C21.2343 9.94314 18.7491 8.91409 16.9164 7.08224C15.0838 5.25039 14.0536 2.7657 14.0524 0.17448C14.0524 0.11632 14.0524 0.0581601 14.0524 0H8.6323C8.6323 0.134216 8.62112 0.268431 8.62112 0.404884C8.6229 4.37747 10.2018 8.18684 13.0108 10.9959C15.8199 13.8049 19.6292 15.3838 23.6018 15.3856Z" fill="#4590BA"/>
<path d="M23.8255 8.15808H24V0H15.8464C15.8464 0.0581601 15.8464 0.11632 15.8464 0.17448C15.8488 2.29036 16.69 4.31897 18.1858 5.81554C19.6815 7.31212 21.7096 8.15452 23.8255 8.15808Z" fill="#4590BA"/>
<path d="M16.0813 15.3945C13.3019 13.9992 10.965 11.8587 9.33165 9.21216C7.69829 6.56561 6.83272 3.51713 6.83158 0.407121C6.83158 0.270668 6.83158 0.136453 6.84276 0.00223693H0V15.3945H16.0813Z" fill="#4590BA"/>
<path d="M23.9128 17.1684V17.1841H0V24H24V17.1639L23.9128 17.1684Z" fill="#4590BA"/>
</svg>
