<svg width="100" height="100" viewBox="0 0 100 100" fill="none" xmlns="http://www.w3.org/2000/svg">
<path d="M40.7085 67.1762C41.7978 68.2199 44.7271 73.1183 36.8454 92.1532C35.7012 94.8725 34.5111 97.5368 33.3211 99.9997H0V0H99.9815V33.3455C92.7406 25.7095 79.7783 15.6747 61.9369 16.1966C35.7012 16.9657 18.6195 37.0078 19.3976 66.0592C19.4186 66.7941 19.6602 67.5056 20.091 68.1013C20.5218 68.697 21.1219 69.1492 21.8132 69.3991C22.5045 69.649 23.255 69.6851 23.967 69.5025C24.679 69.3199 25.3197 68.9273 25.8055 68.3756C25.833 68.3298 29.458 64.3287 33.9161 64.1364C36.2779 64.0907 38.4932 65.0062 40.7085 67.1762Z" fill="#F68833"/>
<path d="M26.9408 58.5883C28.9181 37.6215 42.1824 24.1075 62.1568 23.5215C83.5866 22.8898 97.4094 41.2014 100 44.8637V100H41.4135C42.1458 98.3886 42.8782 96.7222 43.583 95.0284C50.6043 78.081 51.2908 67.2497 45.7983 61.9027C42.1092 58.3502 38.0173 56.6381 33.6142 56.8212C31.291 56.9394 29.0181 57.5412 26.9408 58.5883Z" fill="#F68833"/>
</svg>
