<svg width="84" height="78" viewBox="0 0 84 78" fill="none" xmlns="http://www.w3.org/2000/svg">
<path d="M54 51H30C28.4087 51 26.8826 50.3679 25.7574 49.2426C24.6321 48.1174 24 46.5913 24 45V39C24 37.4087 24.6321 35.8826 25.7574 34.7574C26.8826 33.6321 28.4087 33 30 33H54C55.5913 33 57.1174 33.6321 58.2426 34.7574C59.3679 35.8826 60 37.4087 60 39V45C60 46.5913 59.3679 48.1174 58.2426 49.2426C57.1174 50.3679 55.5913 51 54 51ZM30 39V45H54V39H30Z" fill="#CCE0DE"/>
<path d="M78 0H6C4.4087 0 2.88258 0.632141 1.75736 1.75736C0.632141 2.88258 0 4.4087 0 6V18C0 19.5913 0.632141 21.1174 1.75736 22.2426C2.88258 23.3679 4.4087 24 6 24V72C6 73.5913 6.63214 75.1174 7.75736 76.2426C8.88258 77.3679 10.4087 78 12 78H72C73.5913 78 75.1174 77.3679 76.2426 76.2426C77.3679 75.1174 78 73.5913 78 72V24C79.5913 24 81.1174 23.3679 82.2426 22.2426C83.3679 21.1174 84 19.5913 84 18V6C84 4.4087 83.3679 2.88258 82.2426 1.75736C81.1174 0.632141 79.5913 0 78 0ZM72 72H12V24H72V72ZM78 18H6V6H78V18Z" fill="#CCE0DE"/>
</svg>
