<svg width="48" height="48" viewBox="0 0 48 48" xmlns="http://www.w3.org/2000/svg">
<path d="M23.4673 9.60156C19.6976 9.60156 19.2279 9.61976 17.7526 9.68217C16.2713 9.75498 15.2693 9.98468 14.3852 10.3279C13.4599 10.6772 12.6219 11.2242 11.9296 11.9306C11.2212 12.6212 10.674 13.4597 10.3269 14.3862C9.9837 15.2703 9.75401 16.2723 9.6812 17.7536C9.61445 19.2297 9.60059 19.6986 9.60059 23.4682C9.60059 27.2378 9.61879 27.7076 9.6812 29.1829C9.75401 30.6599 9.9837 31.6662 10.3269 32.5503C10.6763 33.4756 11.2232 34.3136 11.9296 35.0059C12.6203 35.7142 13.4587 36.2615 14.3852 36.6085C15.2693 36.9474 16.2756 37.1815 17.7526 37.2543C19.2287 37.321 19.6976 37.3349 23.4673 37.3349C27.2369 37.3349 27.7067 37.3167 29.1819 37.2543C30.6589 37.1815 31.6652 36.9466 32.5493 36.6085C33.4746 36.2592 34.3126 35.7123 35.0049 35.0059C35.7142 34.316 36.2616 33.4773 36.6076 32.5503C36.9465 31.6662 37.1805 30.6599 37.2533 29.1829C37.3201 27.7068 37.3339 27.2378 37.3339 23.4682C37.3339 19.6986 37.3157 19.2288 37.2533 17.7536C37.1805 16.2766 36.9456 15.2651 36.6076 14.3862C36.2582 13.4608 35.7113 12.6228 35.0049 11.9306C34.315 11.2213 33.4763 10.6739 32.5493 10.3279C31.6652 9.98468 30.6589 9.75498 29.1819 9.68217C27.7058 9.61543 27.2369 9.60156 23.4673 9.60156ZM23.4673 12.0979C27.1693 12.0979 27.6113 12.1161 29.0744 12.1785C30.424 12.2418 31.159 12.4671 31.647 12.6578C32.2503 12.8805 32.7963 13.235 33.2453 13.6953C33.7049 14.1424 34.0581 14.6872 34.2785 15.2893C34.4692 15.7773 34.6946 16.5124 34.7579 17.8619C34.8203 19.325 34.8385 19.768 34.8385 23.4691C34.8385 27.1702 34.8203 27.6131 34.7527 29.0763C34.6799 30.4258 34.4545 31.1609 34.2647 31.6489C34.002 32.2998 33.7091 32.7549 33.2254 33.2472C32.7749 33.7047 32.2292 34.0574 31.6271 34.2804C31.1451 34.4711 30.3997 34.6964 29.045 34.7597C27.574 34.8221 27.1406 34.8403 23.4291 34.8403C19.7176 34.8403 19.2851 34.8221 17.8124 34.7545C16.4628 34.6817 15.7183 34.4563 15.2303 34.2665C14.5715 34.0039 14.12 33.7109 13.6363 33.2272C13.1483 32.7393 12.838 32.2747 12.5988 31.6289C12.4046 31.147 12.1827 30.4016 12.1108 29.0468C12.0614 27.5932 12.038 27.1425 12.038 23.4483C12.038 19.7558 12.0614 19.3042 12.1108 17.8325C12.1827 16.4777 12.4046 15.734 12.5988 15.2503C12.838 14.5907 13.1492 14.14 13.6363 13.652C14.1191 13.1692 14.5715 12.8572 15.2303 12.6127C15.7183 12.4229 16.4446 12.1976 17.7994 12.1299C19.2703 12.0771 19.7037 12.058 23.41 12.058L23.4673 12.0979ZM23.4673 16.3511C22.5323 16.3508 21.6064 16.5347 20.7426 16.8923C19.8787 17.25 19.0938 17.7743 18.4327 18.4354C17.7716 19.0965 17.2473 19.8815 16.8896 20.7453C16.532 21.6092 16.3481 22.535 16.3484 23.47C16.3481 24.4049 16.532 25.3308 16.8896 26.1946C17.2473 27.0585 17.7716 27.8434 18.4327 28.5045C19.0938 29.1656 19.8787 29.69 20.7426 30.0476C21.6064 30.4052 22.5323 30.5891 23.4673 30.5888C24.4022 30.5891 25.3281 30.4052 26.1919 30.0476C27.0558 29.69 27.8407 29.1656 28.5018 28.5045C29.1629 27.8434 29.6873 27.0585 30.0449 26.1946C30.4025 25.3308 30.5864 24.4049 30.5861 23.47C30.5864 22.535 30.4025 21.6092 30.0449 20.7453C29.6873 19.8815 29.1629 19.0965 28.5018 18.4354C27.8407 17.7743 27.0558 17.25 26.1919 16.8923C25.3281 16.5347 24.4022 16.3508 23.4673 16.3511ZM23.4673 28.0925C20.912 28.0925 18.8447 26.0252 18.8447 23.47C18.8447 20.9147 20.912 18.8475 23.4673 18.8475C26.0225 18.8475 28.0898 20.9147 28.0898 23.47C28.0898 26.0252 26.0225 28.0925 23.4673 28.0925Z"/>
<path d="M32.4382 17.6685C32.8387 17.3682 33.0639 16.9608 33.0645 16.5358C33.0645 15.6545 32.1028 14.9375 30.929 14.9375C30.6491 14.9375 30.372 14.9789 30.1134 15.0593C29.8549 15.1397 29.6199 15.2576 29.422 15.4061C29.2241 15.5547 29.0672 15.7311 28.9601 15.9252C28.853 16.1193 28.7979 16.3274 28.7979 16.5375C28.7979 16.7476 28.853 16.9557 28.9601 17.1498C29.0672 17.3439 29.2241 17.5203 29.422 17.6689C29.6199 17.8174 29.8549 17.9353 30.1134 18.0157C30.372 18.0961 30.6491 18.1375 30.929 18.1375C31.495 18.1375 32.0378 17.9688 32.4382 17.6685Z"/>
</svg>
