<svg width="24" height="25" viewBox="0 0 24 25" fill="none" xmlns="http://www.w3.org/2000/svg">
<path d="M10.1936 14.786C10.5703 14.786 11.0006 14.6514 11.4272 14.4191V12.5898H9.63041C9.19092 13.3772 9.10967 14.1517 9.49746 14.5408C9.65811 14.703 9.89263 14.786 10.1936 14.786Z" fill="#F08322"/>
<path d="M9.25179 16.7976C9.9258 16.7976 10.6792 16.5855 11.4289 16.2075V15.2394C11.0079 15.422 10.5887 15.5197 10.1954 15.5197C9.69867 15.5197 9.27764 15.3611 8.97665 15.0587C8.40974 14.4926 8.38204 13.5522 8.8086 12.5859H7.76342C7.03771 14.0464 6.96938 15.4828 7.73203 16.2481C8.09212 16.6076 8.61656 16.7976 9.25179 16.7976Z" fill="#F08322"/>
<path d="M5.67178 18.3596C6.18329 18.8704 6.93486 19.1414 7.84524 19.1414C8.93659 19.1414 10.1812 18.7634 11.4258 18.0941V17.0301C10.6853 17.3583 9.94114 17.5372 9.24866 17.5372C8.414 17.5372 7.70859 17.2717 7.20632 16.772C6.25162 15.8186 6.20361 14.2291 6.92748 12.5898H5.93954C4.67277 14.9151 4.48441 17.1721 5.67178 18.3596Z" fill="#F08322"/>
<path d="M3.14366 20.9024C3.77705 21.5349 4.67819 21.8558 5.82309 21.8558C7.48873 21.8558 9.45352 21.1864 11.4294 20.0026V18.922C10.1885 19.5379 8.95125 19.879 7.84882 19.879C6.73901 19.879 5.80647 19.5342 5.15277 18.8814C3.77705 17.5077 3.84722 15.0939 5.10661 12.5898H4.06881C2.0043 15.9938 1.52049 19.2834 3.14366 20.9024Z" fill="#F08322"/>
<path d="M5.82236 22.5933C4.4928 22.5933 3.38668 22.1895 2.62034 21.4243C1.34618 20.1519 1.10058 18.0332 1.92786 15.4591C2.2307 14.5168 2.6665 13.5505 3.21495 12.5898H0V24.0021H11.4287V20.8526C9.46018 21.9682 7.50462 22.5933 5.82236 22.5933Z" fill="#F08322"/>
<path d="M22.3486 5.29033C21.7263 5.12437 21.1261 5.03955 20.5685 5.03955C19.8594 5.03955 19.4679 5.17969 19.4642 5.18154C19.4623 5.18338 19.3682 5.2221 19.2574 5.2221C19.1724 5.2221 19.0986 5.19813 19.0395 5.15203C18.8936 5.03771 18.9878 4.75005 18.9915 4.73714C19.0118 4.66523 19.4845 2.93559 18.624 1.07134C18.4301 0.647231 18.1956 0.29319 17.9592 0H12.5708V11.4104H23.9995L23.981 6.0777C23.4898 5.74394 22.9321 5.44707 22.3486 5.29033Z" fill="#B1D34A"/>
<path d="M20.5665 4.3164C21.187 4.3164 21.8481 4.41044 22.535 4.59299C22.9043 4.69256 23.2607 4.83639 23.5968 5.00788L21.4695 2.88179L19.2056 0.621094C19.2296 0.670881 19.2573 0.718824 19.2794 0.770455C19.9664 2.26406 19.9054 3.65257 19.8002 4.36987C20.0402 4.33484 20.2988 4.3164 20.5665 4.3164Z" fill="#B1D34A"/>
<path d="M16.7648 12.5859H15.21V23.9982H16.7648V12.5859Z" fill="#268E80"/>
<path d="M19.0612 12.5859H17.5063V23.9982H19.0612V12.5859Z" fill="#268E80"/>
<path d="M21.3615 12.5859H19.8066V23.9982H21.3615V12.5859Z" fill="#268E80"/>
<path d="M23.9981 12.5859H22.1035V23.9982H23.9981V12.5859Z" fill="#268E80"/>
<path d="M14.4673 12.5859H12.5708V23.9982H14.4673V12.5859Z" fill="#268E80"/>
<path d="M9.11671 5.86693C8.31343 7.5099 7.4843 9.20819 5.72079 9.20819C3.95728 9.20819 3.12816 7.5099 2.32488 5.86693C1.66933 4.52821 1.04518 3.25772 0 2.99219V11.4099H11.4287V2.99588C10.389 3.26509 9.76856 4.5319 9.11671 5.86693Z" fill="#B16531"/>
<path d="M2.98781 5.5448C3.72276 7.04947 4.41893 8.47117 5.71895 8.47117C7.01896 8.47117 7.71513 7.04947 8.45008 5.5448C9.18688 4.03828 9.94768 2.49119 11.4268 2.24226V0H0V2.24042C1.48652 2.48197 2.25102 4.03459 2.98781 5.5448Z" fill="#B16531"/>
</svg>
