<svg width="81" height="80" viewBox="0 0 81 80" fill="none" xmlns="http://www.w3.org/2000/svg">
<path d="M33.9785 49.2786C35.2342 49.2786 36.6684 48.8299 38.0903 48.0555V41.9581H32.1011C30.6361 44.5827 30.3652 47.1642 31.6579 48.4611C32.1934 49.002 32.9751 49.2786 33.9785 49.2786Z" fill="#F08322"/>
<path d="M30.838 55.9879C33.0848 55.9879 35.5962 55.2811 38.0953 54.021V50.7941C36.6918 51.4026 35.2945 51.7284 33.9834 51.7284C32.3276 51.7284 30.9242 51.1998 29.9209 50.1917C28.0312 48.3047 27.9388 45.17 29.3607 41.9492H25.8768C23.4577 46.8172 23.23 51.6054 25.7721 54.1563C26.9724 55.3548 28.7206 55.9879 30.838 55.9879Z" fill="#F08322"/>
<path d="M18.9066 61.1907C20.6117 62.8933 23.1169 63.7969 26.1515 63.7969C29.7894 63.7969 33.9381 62.5368 38.0868 60.3056V56.759C35.6185 57.8531 33.1379 58.4493 30.8296 58.4493C28.0474 58.4493 25.696 57.5642 24.0217 55.8985C20.8394 52.7207 20.6794 47.4224 23.0923 41.9581H19.7991C15.5765 49.7089 14.9487 57.2323 18.9066 61.1907Z" fill="#F08322"/>
<path d="M10.4776 69.6668C12.5889 71.7751 15.5927 72.8446 19.4091 72.8446C24.9612 72.8446 31.5106 70.6134 38.0969 66.6673V63.0654C33.9604 65.1184 29.8363 66.2555 26.1615 66.2555C22.4621 66.2555 19.3537 65.1061 17.1747 62.9302C12.5889 58.351 12.8228 50.3051 17.0208 41.9581H13.5614C6.67971 53.3047 5.067 64.2701 10.4776 69.6668Z" fill="#F08322"/>
<path d="M19.408 75.3033C14.9761 75.3033 11.289 73.9572 8.73451 71.4063C4.48728 67.1652 3.66862 60.1028 6.42623 51.5221C7.43572 48.3812 8.88839 45.1604 10.7165 41.9581H0V79.9992H38.0958V69.5009C31.5341 73.2196 25.0155 75.3033 19.408 75.3033Z" fill="#F08322"/>
<path d="M74.4991 17.6345C72.4247 17.0813 70.4242 16.7986 68.5653 16.7986C66.2016 16.7986 64.8967 17.2657 64.8843 17.2719C64.8782 17.278 64.5643 17.4071 64.1949 17.4071C63.9118 17.4071 63.6656 17.3272 63.4686 17.1735C62.9823 16.7925 63.2963 15.8336 63.3086 15.7906C63.3763 15.5508 64.9521 9.78535 62.0836 3.57116C61.4373 2.15745 60.6556 0.977306 59.8677 0H41.9062V38.035H80.002L79.9404 20.2591C78.3031 19.1466 76.4442 18.157 74.4991 17.6345Z" fill="#B1D34A"/>
<path d="M68.559 14.3892C70.6272 14.3892 72.8308 14.7026 75.1206 15.3111C76.3517 15.6431 77.5397 16.1225 78.66 16.6941L71.569 9.60712L64.0225 2.07141C64.1025 2.23737 64.1948 2.39718 64.2687 2.56928C66.5585 7.54801 66.3554 12.1764 66.0045 14.5674C66.8047 14.4506 67.6665 14.3892 68.559 14.3892Z" fill="#B1D34A"/>
<path d="M55.886 41.9492H50.7031V79.9903H55.886V41.9492Z" fill="#268E80"/>
<path d="M63.5422 41.9492H58.3594V79.9903H63.5422V41.9492Z" fill="#268E80"/>
<path d="M71.2102 41.9492H66.0273V79.9903H71.2102V41.9492Z" fill="#268E80"/>
<path d="M79.999 41.9492H73.6836V79.9903H79.999V41.9492Z" fill="#268E80"/>
<path d="M48.2278 41.9492H41.9062V79.9903H48.2278V41.9492Z" fill="#268E80"/>
<path d="M30.3892 19.5603C27.7116 25.0369 24.9478 30.6979 19.0694 30.6979C13.191 30.6979 10.4272 25.0369 7.74965 19.5603C5.56448 15.0979 3.48395 10.8629 0 9.97778V38.0369H38.0958V9.99008C34.6303 10.8875 32.562 15.1102 30.3892 19.5603Z" fill="#B16531"/>
<path d="M9.95943 18.4828C12.4093 23.4984 14.7299 28.2374 19.0633 28.2374C23.3967 28.2374 25.7172 23.4984 28.1671 18.4828C30.6231 13.461 33.1591 8.30403 38.0896 7.47424V0H0V7.46809C4.95509 8.27329 7.50343 13.4487 9.95943 18.4828Z" fill="#B16531"/>
</svg>
